<svg xmlns="http://www.w3.org/2000/svg" viewBox="0 0 785.8 442.93"><g id="Layer_2" data-name="Layer 2"><g id="Layer_1-2" data-name="Layer 1"><path d="M300,127.94c-7.68,0-13.92,7-13.92,15.57s6.24,15.57,13.92,15.57,13.91-7,13.91-15.57S307.63,127.94,300,127.94Zm0,22.13c-3.24,0-5.86-2.94-5.86-6.56S296.71,137,300,137s5.86,2.93,5.86,6.55S303.19,150.07,300,150.07Z"/><path d="M290.91,85.7c-1.46.44-2.88.92-4.26,1.46a16.86,16.86,0,0,1-12.07.11,50.11,50.11,0,0,0-31.93-1,53,53,0,0,0-18.5,9.88c-12.39,10.21-25.24,34.47-19.14,60.52,4.5,19.2,18.1,33.9,35,38.34a45.85,45.85,0,0,0-3.58,11.73,47.66,47.66,0,0,0-.62,7,5.19,5.19,0,0,1-1.19-.26c-21.52-7.67-39.13-26.24-45.55-51.35A79.45,79.45,0,0,1,207.18,88.9a70.4,70.4,0,0,1,31.75-20A66.63,66.63,0,0,1,292,75.37C296.17,77.79,295.49,84.35,290.91,85.7Z"/><path d="M270.31,297.63a70.8,70.8,0,0,1-42.93-33.84c-6.32-11-10.18-23.13-10.28-35.24-.23-26.86,10.9-53.67,33.9-68.69a68.85,68.85,0,0,1,14.07-7.05c9-3.26,17.6,5.48,15.32,15.28l0,.21A51.24,51.24,0,0,0,261,175.93a56.93,56.93,0,0,0-24.61,37.45A60.81,60.81,0,0,0,237.87,242a59,59,0,0,0,5.32,12.39,54.58,54.58,0,0,0,24.67,22.75h0c2.56,1,9.72,3.3,9.72,3.3,6.5,2.63,434.75,9.76,435.43,16.05S303.45,306.32,270.31,297.63Z"/><path d="M292.06,281.49a81.72,81.72,0,0,1-1.71,11.85,77.07,77.07,0,0,1-16,32.75,70,70,0,0,1-34.19,22.71c-22.38,6.58-47.33,1.34-66-16.31a74.3,74.3,0,0,1-9.55-11c-5.4-7.6-.9-18.54,8-19.27l.06,0a56.61,56.61,0,0,0,12,16.4A51.43,51.43,0,0,0,222.2,333a52.14,52.14,0,0,0,38.18-19.18,58.87,58.87,0,0,0,13.41-34.75c.08-1.46.09-2.9.07-4.33a61.56,61.56,0,0,0-2.52-16.17,57.3,57.3,0,0,0-15.49-25.31,54.33,54.33,0,0,0-11.75-8.45V204.32a69.94,69.94,0,0,1,24.27,15,76.73,76.73,0,0,1,22.87,43.85A80.63,80.63,0,0,1,292.06,281.49Z"/><path d="M388.26,189l5.31,8.16,3.06,4.51a50.21,50.21,0,0,1,8.9,28.28c0,9.66-3.93,18.13-9.17,25.4q-10.74,15-28.11,15a27.68,27.68,0,0,1-22.06-10.09q-8.6-10.09-8.6-25.86,0-19.28,13.39-32.15,7.11-6.83,13.11-6.83a6.51,6.51,0,0,1,5.08,2.19,8.07,8.07,0,0,1,2,5.62q0,4.65-4.5,8L362,214.63a23.21,23.21,0,0,0-6.64,8.44,24.2,24.2,0,0,0-2.65,10.7q0,8.37,4.64,13.82a14.84,14.84,0,0,0,11.81,5.46q7.9,0,13.74-7.22c3.89-4.8,7.14-10.47,7.14-17a26.35,26.35,0,0,0-2.36-11.25c-1.58-3.38-6.3-8.61-11.53-15.69a66.28,66.28,0,0,1-7.86-13H352.72q-8,0-8-6.68,0-4.86,2.8-7.5c1.87-1.75,4.49-2.63,7.88-2.63h9.87q1.15-13.94,10.45-23C382,143,390.69,140,399.35,140q9.75,0,15.9,6.55t6.15,16.95q0,13.86-9.76,21.25-5.53,4.22-17.6,4.22ZM380,172.14h15.17q11.71,0,11.72-8.31a6.4,6.4,0,0,0-2.4-5.2,9.72,9.72,0,0,0-6.37-2,16.37,16.37,0,0,0-11.35,4.71C383.38,164.52,380.26,168.1,380,172.14Z"/><path d="M459.67,215.27l8.95,17.09a12,12,0,0,1,1.67,5.21,8.76,8.76,0,0,1-2.22,5.84,6.5,6.5,0,0,1-5,2.6q-2.43,0-4.22-3.16l-.69-1.27-13.4-24.41-6.46,19.49q-3.12,9.34-9.12,9.35a5.46,5.46,0,0,1-4.19-1.86,6.51,6.51,0,0,1-1.7-4.54,14.81,14.81,0,0,1,.92-4.71l.64-1.9,24.71-74.23.63-1.9q2.66-7.87,8.49-7.88a5.39,5.39,0,0,1,4.16,2,7,7,0,0,1,1.73,4.72,15.4,15.4,0,0,1-.93,4.85l-.63,1.9L448.3,206.61l13-11.75q4-3.65,6.92-3.65a5.1,5.1,0,0,1,4.05,1.9,7,7,0,0,1,1.61,4.71q0,4.71-4.27,8.58l-1.33,1.2Z"/><path d="M529.23,227.17h6.67q7.3,0,7.31,6.24a8.68,8.68,0,0,1-2.56,6.66c-1.71,1.59-5.41,2.38-8.47,2.38h-9.32a126.59,126.59,0,0,1-6.05,16Q509.22,276,494.72,276a19,19,0,0,1-14.79-6.73,24.2,24.2,0,0,1-6-16.69c0-4.63,2.39-8.94,4.55-12.94a22.31,22.31,0,0,1,8.55-9q6.09-3.43,18-3.43h9.38l1.67-5a17.41,17.41,0,0,1-7.83,2.17,13.12,13.12,0,0,1-13.81-13.74q0-3.72,2.48-11.15l6.27-18.86.63-2q2.76-7.92,8.57-7.92a5.35,5.35,0,0,1,4.23,2,7.36,7.36,0,0,1,1.7,5,24.33,24.33,0,0,1-1.5,6.59l-5.63,16.76a27.43,27.43,0,0,0-1.39,5.26q-.16,3.44,3.57,3.44a9.51,9.51,0,0,0,5.41-1.9,8.36,8.36,0,0,0,3.51-4.27L530,180.54l.58-2q2.7-7.92,8.57-7.92a5.33,5.33,0,0,1,4.23,2,7.38,7.38,0,0,1,1.7,4.94,15.41,15.41,0,0,1-.87,4.7l-.69,1.89ZM509.1,242.45H501q-13.27,0-13.28,10.13a8.71,8.71,0,0,0,1.82,5.77,6,6,0,0,0,4.88,2.19q4.21,0,7.47-4T509.1,242.45Z"/><path d="M583.88,173.67h-7.12q-6.4,0-6.41-6.76a10.29,10.29,0,0,1,2.63-7.18,8.38,8.38,0,0,1,6.44-2.88h18.47q17,0,26,9.85T633,195.05c0,18.81-6.44,36-16.72,51.71Q607.56,260,596.55,266c-14.74,8.11-28.4,5.67-45.44,2.61m20.65-14h2.31c11.93,0,23.23-6.45,31.27-19.34a85.44,85.44,0,0,0,9.21-20.13,67.72,67.72,0,0,0,3.38-20.05q0-10.28-4.74-16.18a15.61,15.61,0,0,0-12.87-5.91Z"/><path d="M659.35,233.28h6.5q7.24,0,7.25,6.24c0,2.85-2.16,5.07-3.87,6.66a10.09,10.09,0,0,1-7.16,2.39h-9.15q-5.05,0-8-2.53c-1.94-1.68-1.6-4-1.6-6.87a19.49,19.49,0,0,1,1.21-5.89l9.49-28.47.64-2q2.76-8.26,9-7.91a4.76,4.76,0,0,1,2.81,1.11,6.92,6.92,0,0,1,2.62,5.54,24.55,24.55,0,0,1-1.55,6.87ZM667,171.82a7.11,7.11,0,0,1,5.69,2.85,11.43,11.43,0,0,1,0,13.86,7.1,7.1,0,0,1-11.37,0,11.43,11.43,0,0,1,0-13.86A7.1,7.1,0,0,1,667,171.82Z"/><path d="M785.8,222c.22,41.48-21.56,79.82-50.59,108.24-59.14,57.3-140,86.25-219.57,101.59C378.36,456.2,220.32,442.72,99.49,369,48.23,337.06,0,285.83,0,222S48,106.6,99.22,74.47C220.2.21,378.15-13.35,515.81,11.19,595.46,26.69,676.36,56,735.42,113.5c29,28.5,50.72,67,50.38,108.46Zm-.4,0C783.28,116.15,664.22,53.76,574.73,28.25,440.89-9.3,283.92-4.74,155.23,49.46c-55,24.09-109.75,59.38-137.82,114.22-41.19,83.14,12.89,159.24,83.55,203,134,82.54,324.83,92.15,474,49.75C664.5,390.68,783.52,327.84,785.4,222Z"/></g></g></svg>