<svg xmlns="http://www.w3.org/2000/svg" viewBox="0 0 500.32 512.09"><defs><style>.cls-1{fill:#f89938;}.cls-2{fill:#191919;}.cls-3{fill:none;stroke:#f89938;stroke-miterlimit:10;stroke-width:3px;}</style></defs><g id="Layer_2" data-name="Layer 2"><g id="Layer_1-2" data-name="Layer 1"><path class="cls-1" d="M306.88,119.39c-2,.47-4,1-6,1.56a30.36,30.36,0,0,1-16.85.11A90.79,90.79,0,0,0,239.43,120a83.43,83.43,0,0,0-25.85,10.56c-17.33,10.9-35.28,36.8-26.76,64.61,6.29,20.5,25.31,36.2,49,40.94a40.9,40.9,0,0,0-5,12.53,39.93,39.93,0,0,0-.88,7.53,9.19,9.19,0,0,1-1.66-.29c-30.07-8.18-54.69-28-63.66-54.82-9.65-28.79,1.2-58.28,25.29-78.25,11.85-9.83,26.95-17.33,44.38-21.3a118.76,118.76,0,0,1,74.22,6.85C314.24,110.94,313.29,117.94,306.88,119.39Z"/><path class="cls-2" d="M302.25,341.51A120.88,120.88,0,0,1,284,336.13c-16.72-6.51-31.41-16.91-41.8-30.74-8.83-11.8-14.23-24.7-14.37-37.63-.32-28.68,15.24-57.31,47.38-73.34a110.54,110.54,0,0,1,19.68-7.53c12.54-3.48,24.59,5.85,21.41,16.32l-.07.21a85.55,85.55,0,0,0-27,8.16c-18.54,9.19-30.42,23.92-34.39,40a48.84,48.84,0,0,0-1.34,8.36,49.92,49.92,0,0,0,3.38,22.2,56,56,0,0,0,7.43,13.23c8.44,11.26,20.66,19.47,34.49,24.29h0c3.58,1.1,13.59,3.53,13.59,3.53C321.5,326,428,328,429,334.74S348.56,350.79,302.25,341.51Z"/><path class="cls-1" d="M332.64,324.28a67.58,67.58,0,0,1-2.39,12.66c-3.62,12.57-11.05,24.61-22.31,35C294.73,384,278,392.16,260.15,396.16c-31.28,7-66.15,1.43-92.24-17.42A90,90,0,0,1,154.57,367c-7.55-8.1-1.26-19.78,11.22-20.57l.08,0A64.51,64.51,0,0,0,182.66,364c15,10.82,33.82,15.86,52.34,15.32,19.78-.58,39.21-7.49,53.37-20.48C300,348.11,306.25,335,307.1,321.74a45,45,0,0,0,.1-4.63,51.31,51.31,0,0,0-3.52-17.27c-3.95-10.09-11.2-19.49-21.65-27a79,79,0,0,0-16.41-9V241.89a106.41,106.41,0,0,1,33.92,16c17.58,12.69,28.32,29.33,32,46.82A65.76,65.76,0,0,1,332.64,324.28Z"/><path class="cls-2" d="M343.67,160.34c-10.74,0-19.45,7.45-19.45,16.62s8.71,16.63,19.45,16.63,19.45-7.45,19.45-16.63S354.41,160.34,343.67,160.34Zm0,23.62c-4.52,0-8.19-3.13-8.19-7s3.67-7,8.19-7,8.19,3.14,8.19,7S348.2,184,343.67,184Z"/><ellipse class="cls-3" cx="250.16" cy="256.05" rx="248.66" ry="254.55"/></g></g></svg>