<svg xmlns="http://www.w3.org/2000/svg" viewBox="0 0 25.03 25.55"><defs><style>.cls-1{fill:#fff;}.cls-2{fill:#f89938;}.cls-3{fill:#191919;}.cls-4{fill:none;stroke:#f89938;stroke-miterlimit:10;stroke-width:3px;}</style></defs><g id="Layer_2" data-name="Layer 2"><g id="Layer_1-2" data-name="Layer 1"><rect class="cls-1" x="2.16" y="2.5" width="20" height="20" rx="6.36"/><path class="cls-2" d="M15,6.72l-.27.07a1.47,1.47,0,0,1-.75,0,3.85,3.85,0,0,0-2,0,3.71,3.71,0,0,0-1.15.47,2.62,2.62,0,0,0-1.18,2.86,2.77,2.77,0,0,0,2.17,1.81,1.75,1.75,0,0,0-.23.56,2,2,0,0,0,0,.33h-.08a4,4,0,0,1-2.82-2.43A3.17,3.17,0,0,1,9.84,6.87a4.76,4.76,0,0,1,2-.94,5.3,5.3,0,0,1,3.29.3A.25.25,0,0,1,15,6.72Z"/><path class="cls-3" d="M14.82,16.56a5.18,5.18,0,0,1-.81-.24A4.23,4.23,0,0,1,12.16,15a2.84,2.84,0,0,1-.63-1.67A3.56,3.56,0,0,1,13.62,10a4.67,4.67,0,0,1,.88-.33c.55-.15,1.08.26.94.72h0a4.26,4.26,0,0,0-1.2.36,2.78,2.78,0,0,0-1.52,1.78,2.2,2.2,0,0,0-.06.37,2.28,2.28,0,0,0,.48,1.56,3.18,3.18,0,0,0,1.53,1.08h0l.6.16c.4.12,5.12.21,5.16.51S16.87,17,14.82,16.56Z"/><path class="cls-2" d="M16.17,15.8a4,4,0,0,1-.11.56,3.34,3.34,0,0,1-1,1.54A4.58,4.58,0,0,1,13,19a5.18,5.18,0,0,1-4.09-.77,4.3,4.3,0,0,1-.59-.52c-.34-.36-.06-.88.5-.91h0a2.86,2.86,0,0,0,.74.78,3.82,3.82,0,0,0,2.32.67,3.67,3.67,0,0,0,2.37-.9A2.45,2.45,0,0,0,15,15.68a1.34,1.34,0,0,0,0-.2,2.3,2.3,0,0,0-.16-.77,2.63,2.63,0,0,0-1-1.19,3,3,0,0,0-.72-.4v-1a4.41,4.41,0,0,1,1.5.71,3.49,3.49,0,0,1,1.42,2.07A3.18,3.18,0,0,1,16.17,15.8Z"/><path class="cls-3" d="M16.65,8.53a.81.81,0,0,0-.86.74.88.88,0,0,0,1.73,0A.81.81,0,0,0,16.65,8.53Zm0,1.05a.31.31,0,1,1,0-.62.31.31,0,1,1,0,.62Z"/><ellipse class="cls-4" cx="12.51" cy="12.77" rx="11.01" ry="11.27"/></g></g></svg>