<svg xmlns="http://www.w3.org/2000/svg" xmlns:xlink="http://www.w3.org/1999/xlink" viewBox="0 0 102.89 58.01"><defs><style>.cls-1{fill:none;}.cls-2{fill:#191919;}.cls-3{fill:#f89938;}.cls-4{clip-path:url(#clip-path);}.cls-5{fill:#3f3a38;}.cls-6{fill:#3f3b38;}.cls-7{fill:#403b39;}.cls-8{fill:#403c39;}.cls-9{fill:#413c39;}.cls-10{fill:#413c3a;}.cls-11{fill:#413d3a;}.cls-12{fill:#423d3a;}.cls-13{fill:#433e3b;}.cls-14{fill:#443e3b;}.cls-15{fill:#443f3c;}.cls-16{fill:#453f3c;}.cls-17{fill:#45403c;}.cls-18{fill:#46403d;}.cls-19{fill:#46413d;}.cls-20{fill:#47413d;}.cls-21{fill:#48423e;}.cls-22{fill:#49433e;}.cls-23{fill:#49433f;}.cls-24{fill:#4a443f;}.cls-25{fill:#4b4440;}.cls-26{fill:#4b4540;}.cls-27{fill:#4c4540;}.cls-28{fill:#4d4641;}.cls-29{fill:#4d4741;}.cls-30{fill:#4e4742;}.cls-31{fill:#4f4842;}.cls-32{fill:#504943;}.cls-33{fill:#514943;}.cls-34{fill:#524a44;}.cls-35{fill:#534b44;}.cls-36{fill:#544c45;}.cls-37{fill:#554c45;}.cls-38{fill:#564d46;}.cls-39{fill:#574e46;}.cls-40{fill:#584f47;}.cls-41{fill:#595047;}.cls-42{fill:#5b5148;}.cls-43{fill:#5c5148;}.cls-44{fill:#5d5249;}.cls-45{fill:#5f5349;}.cls-46{fill:#60544a;}.cls-47{fill:#61554a;}.cls-48{fill:#63564a;}.cls-49{fill:#64574b;}.cls-50{fill:#66584b;}.cls-51{fill:#68594c;}.cls-52{fill:#695a4c;}.cls-53{fill:#6b5b4c;}.cls-54{fill:#6c5c4c;}.cls-55{fill:#6e5d4d;}.cls-56{fill:#705e4d;}.cls-57{fill:#725f4d;}.cls-58{fill:#73604d;}.cls-59{fill:#75614d;}.cls-60{fill:#77624d;}.cls-61{fill:#79634d;}.cls-62{fill:#7b644d;}.cls-63{fill:#7d654d;}.cls-64{fill:#80664d;}.cls-65{fill:#82674d;}.cls-66{fill:#84684d;}.cls-67{fill:#87694c;}.cls-68{fill:#896a4c;}.cls-69{fill:#8c6b4c;}.cls-70{fill:#8e6c4b;}.cls-71{fill:#916c4b;}.cls-72{fill:#946d4a;}.cls-73{fill:#976e4a;}.cls-74{fill:#9a6f49;}.cls-75{fill:#9b7048;}.cls-76{fill:#9c7048;}.cls-77{fill:#9d7048;}.cls-78{fill:#9e7048;}.cls-79{fill:#9e7047;}.cls-80{fill:#9f7147;}.cls-81{fill:#a07147;}.cls-82{fill:#a17146;}.cls-83{fill:#a27146;}.cls-84{fill:#a37246;}.cls-85{fill:#a37245;}.cls-86{fill:#a47245;}.cls-87{fill:#a57245;}.cls-88{fill:#a67244;}.cls-89{fill:#a77344;}.cls-90{fill:#a77343;}.cls-91{fill:#a87343;}.cls-92{fill:#a97343;}.cls-93{fill:#aa7342;}.cls-94{fill:#ab7342;}.cls-95{fill:#ac7441;}.cls-96{fill:#ad7441;}.cls-97{fill:#ae7440;}.cls-98{fill:#af743f;}.cls-99{fill:#b0743f;}.cls-100{fill:#b1743e;}.cls-101{fill:#b1753e;}.cls-102{fill:#b2753e;}.cls-103{fill:#b2753d;}.cls-104{fill:#b3753d;}.cls-105{fill:#b4753c;}.cls-106{fill:#b5753c;}.cls-107{fill:#b5753b;}.cls-108{fill:#b6753b;}.cls-109{fill:#b7753a;}.cls-110{fill:#b8753a;}.cls-111{fill:#b87539;}.cls-112{fill:#b97539;}.cls-113{fill:#ba7538;}.cls-114{fill:#ba7638;}.cls-115{fill:#bb7637;}.cls-116{fill:#bc7637;}.cls-117{fill:#bc7636;}.cls-118{fill:#bd7636;}.cls-119{fill:#be7635;}.cls-120{fill:#bf7634;}.cls-121{fill:#c07634;}.cls-122{fill:#c07633;}.cls-123{fill:#c17633;}.cls-124{fill:#c27632;}.cls-125{fill:#c37632;}.cls-126{fill:#c37631;}.cls-127{fill:#c47631;}.cls-128{fill:#c47630;}.cls-129{fill:#c57630;}.cls-130{fill:#c6762f;}.cls-131{fill:#c7762f;}.cls-132{fill:#c7762e;}.cls-133{fill:#c8762e;}.cls-134{fill:#c8762d;}.cls-135{fill:#c9762d;}.cls-136{fill:#c9762c;}.cls-137{fill:#ca762c;}.cls-138{fill:#cb762b;}.cls-139{fill:#cc762b;}.cls-140{fill:#cc762a;}.cls-141{fill:#cd762a;}.cls-142{fill:#ce7629;}.cls-143{fill:#cf7529;}.cls-144{fill:#d07529;}.cls-145{fill:#d17528;}</style><clipPath id="clip-path" transform="translate(0 0)"><path class="cls-1" d="M102.88,29.07A17.52,17.52,0,0,1,101,36.81a23,23,0,0,1-2.11,3.41,28,28,0,0,1-2.64,3,37.3,37.3,0,0,1-6.3,5,51.58,51.58,0,0,1-7.09,3.74,65.38,65.38,0,0,1-7.55,2.73,77.79,77.79,0,0,1-7.81,1.87,88.21,88.21,0,0,1-16,1.46,89.41,89.41,0,0,1-16-1.4,75.24,75.24,0,0,1-7.82-1.85A64.39,64.39,0,0,1,20.15,52,51.8,51.8,0,0,1,13,48.32a37.14,37.14,0,0,1-6.34-5,27.46,27.46,0,0,1-2.66-3A22.93,22.93,0,0,1,1.9,36.88a17.12,17.12,0,0,1,0-15.64A23,23,0,0,1,4,17.79a28.52,28.52,0,0,1,2.66-3,36.69,36.69,0,0,1,6.33-5A51,51,0,0,1,20.12,6a63.86,63.86,0,0,1,7.57-2.73,75.47,75.47,0,0,1,7.83-1.86,89.36,89.36,0,0,1,32,.05,74.81,74.81,0,0,1,7.82,1.89A65.55,65.55,0,0,1,82.9,6.12,50.74,50.74,0,0,1,90,9.88a37.29,37.29,0,0,1,6.29,5,27.21,27.21,0,0,1,2.63,3A21.39,21.39,0,0,1,101,21.32,17.37,17.37,0,0,1,102.88,29.07Zm0,0a17.35,17.35,0,0,0-1.89-7.71A21.66,21.66,0,0,0,98.83,18a27.78,27.78,0,0,0-2.64-3,32.76,32.76,0,0,0-3-2.63c-1.06-.81-2.16-1.57-3.29-2.28a51.33,51.33,0,0,0-7.1-3.68A65.56,65.56,0,0,0,75.25,3.7c-1.28-.37-2.58-.7-3.88-1s-2.6-.56-3.91-.8A90.9,90.9,0,0,0,35.62,2c-1.31.25-2.62.51-3.91.82s-2.59.64-3.87,1a64.7,64.7,0,0,0-7.52,2.69,52.16,52.16,0,0,0-7.07,3.69A37.12,37.12,0,0,0,7,15.08a26.58,26.58,0,0,0-2.62,3,21.27,21.27,0,0,0-2.09,3.37,16.68,16.68,0,0,0,0,15.27,22.56,22.56,0,0,0,2.08,3.38,27.62,27.62,0,0,0,2.62,3A36,36,0,0,0,13.22,48a50.66,50.66,0,0,0,7.07,3.72,66.07,66.07,0,0,0,7.52,2.72A76.68,76.68,0,0,0,35.6,56.3a88.63,88.63,0,0,0,15.93,1.44,88.87,88.87,0,0,0,16-1.38,77.42,77.42,0,0,0,7.8-1.83,66.92,66.92,0,0,0,7.54-2.69,50.94,50.94,0,0,0,7.1-3.71c1.13-.71,2.23-1.47,3.29-2.29a34.25,34.25,0,0,0,3-2.64,27,27,0,0,0,2.64-3,23,23,0,0,0,2.1-3.41A17.39,17.39,0,0,0,102.83,29.07Z"/></clipPath></defs><g id="Layer_2" data-name="Layer 2"><g id="Layer_1-2" data-name="Layer 1"><path class="cls-2" d="M39.27,16.76a1.94,1.94,0,0,0-1.82,2,1.83,1.83,0,1,0,3.64,0A1.93,1.93,0,0,0,39.27,16.76Zm0,2.89A.86.86,0,1,1,40,18.8.82.82,0,0,1,39.27,19.65Z" transform="translate(0 0)"/><path class="cls-3" d="M38.09,11.23a5.27,5.27,0,0,0-.56.19,2.21,2.21,0,0,1-1.58,0,6.55,6.55,0,0,0-4.18-.13,7,7,0,0,0-2.42,1.29,8.31,8.31,0,0,0-2.51,7.93,6.62,6.62,0,0,0,4.59,5A5.93,5.93,0,0,0,31,27.07a5.47,5.47,0,0,0-.08.93l-.16,0a9.52,9.52,0,0,1-6-6.72,10.39,10.39,0,0,1,2.37-9.6A9.29,9.29,0,0,1,31.28,9a8.79,8.79,0,0,1,7,.84A.76.76,0,0,1,38.09,11.23Z" transform="translate(0 0)"/><path class="cls-2" d="M35.39,39a9.57,9.57,0,0,1-1.7-.66,9.45,9.45,0,0,1-3.92-3.77,9.57,9.57,0,0,1-1.35-4.61,10.45,10.45,0,0,1,4.44-9A8.91,8.91,0,0,1,34.71,20a1.61,1.61,0,0,1,2,2v0a6.74,6.74,0,0,0-2.53,1A7.47,7.47,0,0,0,31,27.94a8.77,8.77,0,0,0-.12,1,7.89,7.89,0,0,0,.31,2.72,7.7,7.7,0,0,0,.7,1.62,7.12,7.12,0,0,0,3.23,3h0c.34.14,1.27.43,1.27.43.85.35,56.92,1.28,57,2.1S39.73,40.11,35.39,39Z" transform="translate(0 0)"/><path class="cls-3" d="M38.24,36.86A10.17,10.17,0,0,1,38,38.41a9.94,9.94,0,0,1-2.09,4.29,9.12,9.12,0,0,1-4.47,3,8.86,8.86,0,0,1-8.64-2.13,9.42,9.42,0,0,1-1.25-1.44,1.58,1.58,0,0,1,1.05-2.52h0a7.3,7.3,0,0,0,1.57,2.15,6.75,6.75,0,0,0,4.9,1.88,6.85,6.85,0,0,0,5-2.51,7.75,7.75,0,0,0,1.76-4.55,5.42,5.42,0,0,0,0-.57,8,8,0,0,0-.32-2.12,7.5,7.5,0,0,0-2-3.31A7.31,7.31,0,0,0,32,29.44V26.76a9.18,9.18,0,0,1,3.18,2,10.09,10.09,0,0,1,3,5.74A10.73,10.73,0,0,1,38.24,36.86Z" transform="translate(0 0)"/><path class="cls-2" d="M50.83,24.74l.7,1.07.4.59a6.55,6.55,0,0,1,1.16,3.71,5.65,5.65,0,0,1-1.2,3.32,4.31,4.31,0,0,1-3.68,2,3.61,3.61,0,0,1-2.88-1.32,5,5,0,0,1-1.13-3.38A5.58,5.58,0,0,1,46,26.48a2.61,2.61,0,0,1,1.72-.9.85.85,0,0,1,.66.29,1,1,0,0,1,.26.74A1.31,1.31,0,0,1,48,27.66l-.6.45a3,3,0,0,0-.87,1.1,3.18,3.18,0,0,0-.35,1.4,2.66,2.66,0,0,0,.61,1.81,1.92,1.92,0,0,0,1.54.72,2.27,2.27,0,0,0,1.8-1,3.29,3.29,0,0,0,.63-3.7,23.66,23.66,0,0,0-1.51-2,8.83,8.83,0,0,1-1-1.7h-2c-.7,0-1-.29-1-.87a1.3,1.3,0,0,1,.36-1,1.47,1.47,0,0,1,1-.35h1.29a4.55,4.55,0,0,1,1.37-3,4.4,4.4,0,0,1,3.09-1.2,2.74,2.74,0,0,1,2.08.86,3.13,3.13,0,0,1,.8,2.22,3.27,3.27,0,0,1-1.27,2.78,3.85,3.85,0,0,1-2.31.55Zm-1.07-2.2h2c1,0,1.54-.36,1.54-1.08a.86.86,0,0,0-.32-.69,1.28,1.28,0,0,0-.83-.25,2.15,2.15,0,0,0-1.49.61A2.31,2.31,0,0,0,49.76,22.54Z" transform="translate(0 0)"/><path class="cls-2" d="M60.18,28.19l1.17,2.24a1.47,1.47,0,0,1,.22.68,1.1,1.1,0,0,1-.29.76.84.84,0,0,1-.65.35.66.66,0,0,1-.55-.42L60,31.63l-1.76-3.19L57.39,31c-.28.82-.67,1.23-1.2,1.23a.75.75,0,0,1-.55-.25.88.88,0,0,1-.22-.59,1.93,1.93,0,0,1,.12-.62l.08-.25,3.24-9.72.08-.25c.23-.68.61-1,1.11-1a.71.71,0,0,1,.55.26.91.91,0,0,1,.23.62,2.08,2.08,0,0,1-.13.63l-.08.25-1.93,5.79,1.7-1.54A1.52,1.52,0,0,1,61.3,25a.66.66,0,0,1,.53.25.91.91,0,0,1,.21.62A1.47,1.47,0,0,1,61.48,27l-.17.16Z" transform="translate(0 0)"/><path class="cls-2" d="M69.29,29.75h.87q1,0,1,.81a1.12,1.12,0,0,1-.34.88,1.77,1.77,0,0,1-1.1.31H68.46a16,16,0,0,1-.8,2.09c-.66,1.53-1.62,2.3-2.89,2.3a2.49,2.49,0,0,1-1.93-.88,3.15,3.15,0,0,1-.79-2.19,3.74,3.74,0,0,1,.6-1.69,2.84,2.84,0,0,1,1.12-1.18,4.91,4.91,0,0,1,2.36-.45h1.22l.22-.66a2.25,2.25,0,0,1-1,.28,1.72,1.72,0,0,1-1.81-1.8,5.38,5.38,0,0,1,.32-1.46l.82-2.47.09-.25c.24-.7.61-1,1.12-1a.66.66,0,0,1,.55.26.94.94,0,0,1,.23.65,3.34,3.34,0,0,1-.2.86l-.74,2.19a5,5,0,0,0-.18.69c0,.3.14.45.47.45a1.25,1.25,0,0,0,.71-.25,1.1,1.1,0,0,0,.46-.56l1-3,.08-.25c.24-.7.61-1,1.12-1a.73.73,0,0,1,.56.26,1,1,0,0,1,.22.65,2.19,2.19,0,0,1-.11.61l-.09.25Zm-2.64,2H65.6c-1.16,0-1.74.44-1.74,1.33a1.13,1.13,0,0,0,.24.75.77.77,0,0,0,.63.29,1.24,1.24,0,0,0,1-.53A7,7,0,0,0,66.65,31.75Z" transform="translate(0 0)"/><path class="cls-2" d="M76.45,22.74h-.94c-.56,0-.84-.29-.84-.88a1.33,1.33,0,0,1,.35-.94,1.1,1.1,0,0,1,.84-.38h2.42a4.4,4.4,0,0,1,3.41,1.29,5.3,5.3,0,0,1,1.19,3.71,12.28,12.28,0,0,1-2.19,6.77,7.57,7.57,0,0,1-2.59,2.53c-1.93,1.06-3.71.74-5.95.34m2.71-1.83h.3a4.82,4.82,0,0,0,4.09-2.53,10.93,10.93,0,0,0,1.21-2.64,8.66,8.66,0,0,0,.44-2.62,3.25,3.25,0,0,0-.62-2.12,2,2,0,0,0-1.68-.77Z" transform="translate(0 0)"/><path class="cls-2" d="M86.33,30.55h.85c.63,0,.95.27.95.82a1.3,1.3,0,0,1-.51.87,1.32,1.32,0,0,1-.94.31h-1.2a1.53,1.53,0,0,1-1-.33c-.25-.22-.21-.52-.21-.9a2.4,2.4,0,0,1,.16-.77l1.24-3.73.09-.26c.24-.72.63-1.06,1.18-1a.6.6,0,0,1,.36.14.93.93,0,0,1,.35.73,3.18,3.18,0,0,1-.21.9Zm1-8a1,1,0,0,1,.75.37,1.43,1.43,0,0,1,.31.91,1.41,1.41,0,0,1-.31.91.93.93,0,0,1-.75.37.91.91,0,0,1-.74-.37,1.41,1.41,0,0,1-.31-.91,1.43,1.43,0,0,1,.31-.91A.94.94,0,0,1,87.32,22.5Z" transform="translate(0 0)"/><g class="cls-4"><rect class="cls-5" x="0.42" y="0.51" width="25.24" height="57.24"/><rect class="cls-5" x="25.67" y="0.51" width="0.17" height="57.24"/><rect class="cls-5" x="25.83" y="0.51" width="0.17" height="57.24"/><rect class="cls-5" x="26" y="0.51" width="0.17" height="57.24"/><rect class="cls-5" x="26.17" y="0.51" width="0.17" height="57.24"/><rect class="cls-5" x="26.33" y="0.51" width="0.17" height="57.24"/><rect class="cls-5" x="26.5" y="0.51" width="0.17" height="57.24"/><rect class="cls-5" x="26.67" y="0.51" width="0.17" height="57.24"/><rect class="cls-5" x="26.83" y="0.51" width="0.17" height="57.24"/><rect class="cls-5" x="27" y="0.51" width="0.17" height="57.24"/><rect class="cls-5" x="27.17" y="0.51" width="0.17" height="57.24"/><rect class="cls-5" x="27.34" y="0.51" width="0.17" height="57.24"/><rect class="cls-5" x="27.5" y="0.51" width="0.17" height="57.24"/><rect class="cls-5" x="27.67" y="0.51" width="0.17" height="57.24"/><rect class="cls-5" x="27.84" y="0.51" width="0.17" height="57.24"/><rect class="cls-5" x="28" y="0.51" width="0.17" height="57.24"/><rect class="cls-5" x="28.17" y="0.51" width="0.17" height="57.24"/><rect class="cls-5" x="28.34" y="0.51" width="0.17" height="57.24"/><rect class="cls-5" x="28.51" y="0.51" width="0.17" height="57.24"/><rect class="cls-5" x="28.67" y="0.51" width="0.17" height="57.24"/><rect class="cls-5" x="28.84" y="0.51" width="0.17" height="57.24"/><rect class="cls-5" x="29.01" y="0.51" width="0.17" height="57.24"/><rect class="cls-5" x="29.17" y="0.51" width="0.17" height="57.24"/><rect class="cls-5" x="29.34" y="0.51" width="0.17" height="57.24"/><rect class="cls-5" x="29.51" y="0.51" width="0.17" height="57.24"/><rect class="cls-5" x="29.67" y="0.51" width="0.17" height="57.24"/><rect class="cls-5" x="29.84" y="0.51" width="0.17" height="57.24"/><rect class="cls-5" x="30.01" y="0.51" width="0.17" height="57.24"/><rect class="cls-5" x="30.18" y="0.51" width="0.17" height="57.24"/><rect class="cls-5" x="30.34" y="0.51" width="0.17" height="57.24"/><rect class="cls-5" x="30.51" y="0.51" width="0.17" height="57.24"/><rect class="cls-5" x="30.68" y="0.51" width="0.17" height="57.24"/><rect class="cls-5" x="30.84" y="0.51" width="0.17" height="57.24"/><rect class="cls-5" x="31.01" y="0.51" width="0.17" height="57.24"/><rect class="cls-5" x="31.18" y="0.51" width="0.17" height="57.24"/><rect class="cls-5" x="31.35" y="0.51" width="0.17" height="57.24"/><rect class="cls-5" x="31.51" y="0.51" width="0.17" height="57.24"/><rect class="cls-5" x="31.68" y="0.51" width="0.17" height="57.24"/><rect class="cls-5" x="31.85" y="0.51" width="0.17" height="57.24"/><rect class="cls-5" x="32.01" y="0.51" width="0.17" height="57.24"/><rect class="cls-5" x="32.18" y="0.51" width="0.17" height="57.24"/><rect class="cls-5" x="32.35" y="0.51" width="0.17" height="57.24"/><rect class="cls-5" x="32.51" y="0.51" width="0.17" height="57.24"/><rect class="cls-5" x="32.68" y="0.51" width="0.17" height="57.24"/><rect class="cls-5" x="32.85" y="0.51" width="0.17" height="57.24"/><rect class="cls-6" x="33.02" y="0.51" width="0.17" height="57.24"/><rect class="cls-6" x="33.18" y="0.51" width="0.17" height="57.24"/><rect class="cls-6" x="33.35" y="0.51" width="0.17" height="57.24"/><rect class="cls-6" x="33.52" y="0.51" width="0.17" height="57.24"/><rect class="cls-6" x="33.68" y="0.51" width="0.17" height="57.24"/><rect class="cls-6" x="33.85" y="0.51" width="0.17" height="57.24"/><rect class="cls-6" x="34.02" y="0.51" width="0.17" height="57.24"/><rect class="cls-7" x="34.18" y="0.51" width="0.17" height="57.24"/><rect class="cls-7" x="34.35" y="0.51" width="0.17" height="57.24"/><rect class="cls-7" x="34.52" y="0.51" width="0.17" height="57.24"/><rect class="cls-7" x="34.69" y="0.51" width="0.17" height="57.24"/><rect class="cls-7" x="34.85" y="0.51" width="0.17" height="57.24"/><rect class="cls-7" x="35.02" y="0.51" width="0.17" height="57.24"/><rect class="cls-8" x="35.19" y="0.51" width="0.17" height="57.24"/><rect class="cls-8" x="35.35" y="0.51" width="0.17" height="57.24"/><rect class="cls-9" x="35.52" y="0.51" width="0.17" height="57.24"/><rect class="cls-9" x="35.69" y="0.51" width="0.17" height="57.24"/><rect class="cls-9" x="35.86" y="0.51" width="0.17" height="57.24"/><rect class="cls-10" x="36.02" y="0.51" width="0.17" height="57.24"/><rect class="cls-11" x="36.19" y="0.51" width="0.17" height="57.24"/><rect class="cls-12" x="36.36" y="0.51" width="0.17" height="57.24"/><rect class="cls-12" x="36.52" y="0.51" width="0.17" height="57.24"/><rect class="cls-12" x="36.69" y="0.51" width="0.17" height="57.24"/><rect class="cls-12" x="36.86" y="0.51" width="0.17" height="57.24"/><rect class="cls-13" x="37.02" y="0.51" width="0.17" height="57.24"/><rect class="cls-13" x="37.19" y="0.51" width="0.17" height="57.24"/><rect class="cls-13" x="37.36" y="0.51" width="0.17" height="57.24"/><rect class="cls-14" x="37.53" y="0.51" width="0.17" height="57.24"/><rect class="cls-15" x="37.69" y="0.51" width="0.17" height="57.24"/><rect class="cls-15" x="37.86" y="0.51" width="0.17" height="57.24"/><rect class="cls-16" x="38.03" y="0.51" width="0.17" height="57.24"/><rect class="cls-17" x="38.19" y="0.51" width="0.17" height="57.24"/><rect class="cls-18" x="38.36" y="0.51" width="0.17" height="57.24"/><rect class="cls-19" x="38.53" y="0.51" width="0.17" height="57.24"/><rect class="cls-20" x="38.7" y="0.51" width="0.17" height="57.24"/><rect class="cls-20" x="38.86" y="0.51" width="0.17" height="57.24"/><rect class="cls-21" x="39.03" y="0.51" width="0.17" height="57.24"/><rect class="cls-21" x="39.2" y="0.51" width="0.17" height="57.24"/><rect class="cls-22" x="39.36" y="0.51" width="0.17" height="57.24"/><rect class="cls-23" x="39.53" y="0.51" width="0.17" height="57.24"/><rect class="cls-24" x="39.7" y="0.51" width="0.17" height="57.24"/><rect class="cls-25" x="39.86" y="0.51" width="0.17" height="57.24"/><rect class="cls-26" x="40.03" y="0.51" width="0.17" height="57.24"/><rect class="cls-27" x="40.2" y="0.51" width="0.17" height="57.24"/><rect class="cls-28" x="40.37" y="0.51" width="0.17" height="57.24"/><rect class="cls-29" x="40.53" y="0.51" width="0.17" height="57.24"/><rect class="cls-30" x="40.7" y="0.51" width="0.17" height="57.24"/><rect class="cls-31" x="40.87" y="0.51" width="0.17" height="57.24"/><rect class="cls-32" x="41.03" y="0.51" width="0.17" height="57.24"/><rect class="cls-33" x="41.2" y="0.51" width="0.17" height="57.24"/><rect class="cls-34" x="41.37" y="0.51" width="0.17" height="57.24"/><rect class="cls-35" x="41.54" y="0.51" width="0.17" height="57.24"/><rect class="cls-36" x="41.7" y="0.51" width="0.17" height="57.24"/><rect class="cls-37" x="41.87" y="0.51" width="0.17" height="57.24"/><rect class="cls-38" x="42.04" y="0.51" width="0.17" height="57.24"/><rect class="cls-39" x="42.2" y="0.51" width="0.17" height="57.24"/><rect class="cls-40" x="42.37" y="0.51" width="0.17" height="57.24"/><rect class="cls-41" x="42.54" y="0.51" width="0.17" height="57.24"/><rect class="cls-42" x="42.7" y="0.51" width="0.17" height="57.24"/><rect class="cls-43" x="42.87" y="0.51" width="0.17" height="57.24"/><rect class="cls-44" x="43.04" y="0.51" width="0.17" height="57.24"/><rect class="cls-45" x="43.21" y="0.51" width="0.17" height="57.24"/><rect class="cls-46" x="43.37" y="0.51" width="0.17" height="57.24"/><rect class="cls-47" x="43.54" y="0.51" width="0.17" height="57.24"/><rect class="cls-48" x="43.71" y="0.51" width="0.17" height="57.24"/><rect class="cls-49" x="43.87" y="0.51" width="0.17" height="57.24"/><rect class="cls-50" x="44.04" y="0.51" width="0.17" height="57.24"/><rect class="cls-51" x="44.21" y="0.51" width="0.17" height="57.24"/><rect class="cls-52" x="44.38" y="0.51" width="0.17" height="57.24"/><rect class="cls-53" x="44.54" y="0.51" width="0.17" height="57.24"/><rect class="cls-54" x="44.71" y="0.51" width="0.17" height="57.24"/><rect class="cls-55" x="44.88" y="0.51" width="0.17" height="57.24"/><rect class="cls-56" x="45.04" y="0.51" width="0.17" height="57.24"/><rect class="cls-57" x="45.21" y="0.51" width="0.17" height="57.24"/><rect class="cls-58" x="45.38" y="0.51" width="0.17" height="57.24"/><rect class="cls-59" x="45.54" y="0.51" width="0.17" height="57.24"/><rect class="cls-60" x="45.71" y="0.51" width="0.17" height="57.24"/><rect class="cls-61" x="45.88" y="0.51" width="0.17" height="57.24"/><rect class="cls-62" x="46.05" y="0.51" width="0.17" height="57.24"/><rect class="cls-63" x="46.21" y="0.51" width="0.17" height="57.24"/><rect class="cls-64" x="46.38" y="0.51" width="0.17" height="57.24"/><rect class="cls-65" x="46.55" y="0.51" width="0.17" height="57.24"/><rect class="cls-66" x="46.71" y="0.51" width="0.17" height="57.24"/><rect class="cls-67" x="46.88" y="0.51" width="0.17" height="57.24"/><rect class="cls-68" x="47.05" y="0.51" width="0.17" height="57.24"/><rect class="cls-69" x="47.22" y="0.51" width="0.17" height="57.24"/><rect class="cls-70" x="47.38" y="0.51" width="0.17" height="57.24"/><rect class="cls-71" x="47.55" y="0.51" width="0.17" height="57.24"/><rect class="cls-72" x="47.72" y="0.51" width="0.17" height="57.24"/><rect class="cls-73" x="47.88" y="0.51" width="0.17" height="57.24"/><rect class="cls-74" x="48.05" y="0.51" width="0.17" height="57.24"/><rect class="cls-74" x="48.22" y="0.51" width="0.14" height="57.24"/><rect class="cls-74" x="48.35" y="0.51" width="0.14" height="57.24"/><rect class="cls-75" x="48.49" y="0.51" width="0.14" height="57.24"/><rect class="cls-76" x="48.62" y="0.51" width="0.14" height="57.24"/><rect class="cls-76" x="48.76" y="0.51" width="0.14" height="57.24"/><rect class="cls-77" x="48.89" y="0.51" width="0.14" height="57.24"/><rect class="cls-78" x="49.03" y="0.51" width="0.14" height="57.24"/><rect class="cls-79" x="49.16" y="0.51" width="0.14" height="57.24"/><rect class="cls-80" x="49.3" y="0.51" width="0.14" height="57.24"/><rect class="cls-80" x="49.43" y="0.51" width="0.14" height="57.24"/><rect class="cls-81" x="49.57" y="0.51" width="0.14" height="57.24"/><rect class="cls-82" x="49.7" y="0.51" width="0.14" height="57.24"/><rect class="cls-82" x="49.84" y="0.51" width="0.14" height="57.24"/><rect class="cls-83" x="49.97" y="0.51" width="0.14" height="57.24"/><rect class="cls-84" x="50.11" y="0.51" width="0.14" height="57.24"/><rect class="cls-85" x="50.24" y="0.51" width="0.14" height="57.24"/><rect class="cls-86" x="50.38" y="0.51" width="0.14" height="57.24"/><rect class="cls-86" x="50.51" y="0.51" width="0.14" height="57.24"/><rect class="cls-87" x="50.65" y="0.51" width="0.14" height="57.24"/><rect class="cls-88" x="50.78" y="0.51" width="0.14" height="57.24"/><rect class="cls-88" x="50.92" y="0.51" width="0.14" height="57.24"/><rect class="cls-89" x="51.06" y="0.51" width="0.14" height="57.24"/><rect class="cls-90" x="51.19" y="0.51" width="0.14" height="57.24"/><rect class="cls-91" x="51.33" y="0.51" width="0.14" height="57.24"/><rect class="cls-92" x="51.46" y="0.51" width="0.14" height="57.24"/><rect class="cls-92" x="51.6" y="0.51" width="0.14" height="57.24"/><rect class="cls-93" x="51.73" y="0.51" width="0.14" height="57.24"/><rect class="cls-94" x="51.87" y="0.51" width="0.14" height="57.24"/><rect class="cls-94" x="52" y="0.51" width="0.14" height="57.24"/><rect class="cls-95" x="52.14" y="0.51" width="0.14" height="57.24"/><rect class="cls-95" x="52.27" y="0.51" width="0.14" height="57.24"/><rect class="cls-96" x="52.41" y="0.51" width="0.14" height="57.24"/><rect class="cls-97" x="52.54" y="0.51" width="0.14" height="57.24"/><rect class="cls-97" x="52.68" y="0.51" width="0.14" height="57.24"/><rect class="cls-98" x="52.81" y="0.51" width="0.14" height="57.24"/><rect class="cls-98" x="52.95" y="0.51" width="0.14" height="57.24"/><rect class="cls-99" x="53.08" y="0.51" width="0.14" height="57.24"/><rect class="cls-100" x="53.22" y="0.51" width="0.14" height="57.24"/><rect class="cls-101" x="53.35" y="0.51" width="0.14" height="57.24"/><rect class="cls-102" x="53.49" y="0.51" width="0.14" height="57.24"/><rect class="cls-103" x="53.62" y="0.51" width="0.14" height="57.24"/><rect class="cls-104" x="53.76" y="0.51" width="0.14" height="57.24"/><rect class="cls-105" x="53.89" y="0.51" width="0.14" height="57.24"/><rect class="cls-105" x="54.03" y="0.51" width="0.14" height="57.24"/><rect class="cls-106" x="54.16" y="0.51" width="0.14" height="57.24"/><rect class="cls-107" x="54.3" y="0.51" width="0.14" height="57.24"/><rect class="cls-108" x="54.43" y="0.51" width="0.14" height="57.24"/><rect class="cls-109" x="54.57" y="0.51" width="0.14" height="57.24"/><rect class="cls-109" x="54.7" y="0.51" width="0.14" height="57.24"/><rect class="cls-110" x="54.84" y="0.51" width="0.14" height="57.24"/><rect class="cls-111" x="54.97" y="0.51" width="0.14" height="57.24"/><rect class="cls-112" x="55.11" y="0.51" width="0.14" height="57.24"/><rect class="cls-113" x="55.24" y="0.51" width="0.14" height="57.24"/><rect class="cls-114" x="55.38" y="0.51" width="0.14" height="57.24"/><rect class="cls-115" x="55.51" y="0.51" width="0.14" height="57.24"/><rect class="cls-115" x="55.65" y="0.51" width="0.14" height="57.24"/><rect class="cls-116" x="55.78" y="0.51" width="0.14" height="57.24"/><rect class="cls-117" x="55.92" y="0.51" width="0.14" height="57.24"/><rect class="cls-118" x="56.05" y="0.51" width="0.14" height="57.24"/><rect class="cls-119" x="56.19" y="0.51" width="0.14" height="57.24"/><rect class="cls-119" x="56.33" y="0.51" width="0.14" height="57.24"/><rect class="cls-120" x="56.46" y="0.51" width="0.14" height="57.24"/><rect class="cls-120" x="56.6" y="0.51" width="0.14" height="57.24"/><rect class="cls-121" x="56.73" y="0.51" width="0.14" height="57.24"/><rect class="cls-122" x="56.87" y="0.51" width="0.14" height="57.24"/><rect class="cls-123" x="57" y="0.51" width="0.14" height="57.24"/><rect class="cls-124" x="57.14" y="0.51" width="0.14" height="57.24"/><rect class="cls-124" x="57.27" y="0.51" width="0.14" height="57.24"/><rect class="cls-125" x="57.41" y="0.51" width="0.14" height="57.24"/><rect class="cls-126" x="57.54" y="0.51" width="0.14" height="57.24"/><rect class="cls-127" x="57.68" y="0.51" width="0.14" height="57.24"/><rect class="cls-128" x="57.81" y="0.51" width="0.14" height="57.24"/><rect class="cls-129" x="57.95" y="0.51" width="0.14" height="57.24"/><rect class="cls-130" x="58.08" y="0.51" width="0.14" height="57.24"/><rect class="cls-130" x="58.22" y="0.51" width="0.14" height="57.24"/><rect class="cls-131" x="58.35" y="0.51" width="0.14" height="57.24"/><rect class="cls-132" x="58.49" y="0.51" width="0.14" height="57.24"/><rect class="cls-133" x="58.62" y="0.51" width="0.14" height="57.24"/><rect class="cls-134" x="58.76" y="0.51" width="0.14" height="57.24"/><rect class="cls-135" x="58.89" y="0.51" width="0.14" height="57.24"/><rect class="cls-136" x="59.03" y="0.51" width="0.14" height="57.24"/><rect class="cls-137" x="59.16" y="0.51" width="0.14" height="57.24"/><rect class="cls-137" x="59.3" y="0.51" width="0.14" height="57.24"/><rect class="cls-138" x="59.43" y="0.51" width="0.14" height="57.24"/><rect class="cls-139" x="59.57" y="0.51" width="0.14" height="57.24"/><rect class="cls-140" x="59.7" y="0.51" width="0.14" height="57.24"/><rect class="cls-141" x="59.84" y="0.51" width="0.14" height="57.24"/><rect class="cls-141" x="59.97" y="0.51" width="0.14" height="57.24"/><rect class="cls-142" x="60.11" y="0.51" width="0.14" height="57.24"/><rect class="cls-142" x="60.24" y="0.51" width="0.14" height="57.24"/><rect class="cls-143" x="60.38" y="0.51" width="0.14" height="57.24"/><rect class="cls-143" x="60.51" y="0.51" width="0.14" height="57.24"/><rect class="cls-144" x="60.65" y="0.51" width="0.14" height="57.24"/><rect class="cls-145" x="60.78" y="0.51" width="0.14" height="57.24"/><rect class="cls-145" x="60.92" y="0.51" width="41.91" height="57.24"/><rect class="cls-5" width="25.67" height="58.01"/><rect class="cls-5" x="25.67" width="0.17" height="58.01"/><rect class="cls-5" x="25.83" width="0.17" height="58.01"/><rect class="cls-5" x="26" width="0.17" height="58.01"/><rect class="cls-5" x="26.17" width="0.17" height="58.01"/><rect class="cls-5" x="26.33" width="0.17" height="58.01"/><rect class="cls-5" x="26.5" width="0.17" height="58.01"/><rect class="cls-5" x="26.67" width="0.17" height="58.01"/><rect class="cls-5" x="26.83" width="0.17" height="58.01"/><rect class="cls-5" x="27" width="0.17" height="58.01"/><rect class="cls-5" x="27.17" width="0.17" height="58.01"/><rect class="cls-5" x="27.34" width="0.17" height="58.01"/><rect class="cls-5" x="27.5" width="0.17" height="58.01"/><rect class="cls-5" x="27.67" width="0.17" height="58.01"/><rect class="cls-5" x="27.84" width="0.17" height="58.01"/><rect class="cls-5" x="28" width="0.17" height="58.01"/><rect class="cls-5" x="28.17" width="0.17" height="58.01"/><rect class="cls-5" x="28.34" width="0.17" height="58.01"/><rect class="cls-5" x="28.51" width="0.17" height="58.01"/><rect class="cls-5" x="28.67" width="0.17" height="58.01"/><rect class="cls-5" x="28.84" width="0.17" height="58.01"/><rect class="cls-5" x="29.01" width="0.17" height="58.01"/><rect class="cls-5" x="29.17" width="0.17" height="58.01"/><rect class="cls-5" x="29.34" width="0.17" height="58.01"/><rect class="cls-5" x="29.51" width="0.17" height="58.01"/><rect class="cls-5" x="29.67" width="0.17" height="58.01"/><rect class="cls-5" x="29.84" width="0.17" height="58.01"/><rect class="cls-5" x="30.01" width="0.17" height="58.01"/><rect class="cls-5" x="30.18" width="0.17" height="58.01"/><rect class="cls-5" x="30.34" width="0.17" height="58.01"/><rect class="cls-5" x="30.51" width="0.17" height="58.01"/><rect class="cls-5" x="30.68" width="0.17" height="58.01"/><rect class="cls-5" x="30.84" width="0.17" height="58.01"/><rect class="cls-5" x="31.01" width="0.17" height="58.01"/><rect class="cls-5" x="31.18" width="0.17" height="58.01"/><rect class="cls-5" x="31.35" width="0.17" height="58.01"/><rect class="cls-5" x="31.51" width="0.17" height="58.01"/><rect class="cls-5" x="31.68" width="0.17" height="58.01"/><rect class="cls-5" x="31.85" width="0.17" height="58.01"/><rect class="cls-5" x="32.01" width="0.17" height="58.01"/><rect class="cls-5" x="32.18" width="0.17" height="58.01"/><rect class="cls-5" x="32.35" width="0.17" height="58.01"/><rect class="cls-5" x="32.51" width="0.17" height="58.01"/><rect class="cls-5" x="32.68" width="0.17" height="58.01"/><rect class="cls-5" x="32.85" width="0.17" height="58.01"/><rect class="cls-6" x="33.02" width="0.17" height="58.01"/><rect class="cls-6" x="33.18" width="0.17" height="58.01"/><rect class="cls-6" x="33.35" width="0.17" height="58.01"/><rect class="cls-6" x="33.52" width="0.17" height="58.01"/><rect class="cls-6" x="33.68" width="0.17" height="58.01"/><rect class="cls-6" x="33.85" width="0.17" height="58.01"/><rect class="cls-6" x="34.02" width="0.17" height="58.01"/><rect class="cls-7" x="34.18" width="0.17" height="58.01"/><rect class="cls-7" x="34.35" width="0.17" height="58.01"/><rect class="cls-7" x="34.52" width="0.17" height="58.01"/><rect class="cls-7" x="34.69" width="0.17" height="58.01"/><rect class="cls-7" x="34.85" width="0.17" height="58.01"/><rect class="cls-7" x="35.02" width="0.17" height="58.01"/><rect class="cls-8" x="35.19" width="0.17" height="58.01"/><rect class="cls-8" x="35.35" width="0.17" height="58.01"/><rect class="cls-9" x="35.52" width="0.17" height="58.01"/><rect class="cls-9" x="35.69" width="0.17" height="58.01"/><rect class="cls-9" x="35.86" width="0.17" height="58.01"/><rect class="cls-10" x="36.02" width="0.17" height="58.01"/><rect class="cls-11" x="36.19" width="0.17" height="58.01"/><rect class="cls-12" x="36.36" width="0.17" height="58.01"/><rect class="cls-12" x="36.52" width="0.17" height="58.01"/><rect class="cls-12" x="36.69" width="0.17" height="58.01"/><rect class="cls-12" x="36.86" width="0.17" height="58.01"/><rect class="cls-13" x="37.02" width="0.17" height="58.01"/><rect class="cls-13" x="37.19" width="0.17" height="58.01"/><rect class="cls-13" x="37.36" width="0.17" height="58.01"/><rect class="cls-14" x="37.53" width="0.17" height="58.01"/><rect class="cls-15" x="37.69" width="0.17" height="58.01"/><rect class="cls-15" x="37.86" width="0.17" height="58.01"/><rect class="cls-16" x="38.03" width="0.17" height="58.01"/><rect class="cls-17" x="38.19" width="0.17" height="58.01"/><rect class="cls-18" x="38.36" width="0.17" height="58.01"/><rect class="cls-19" x="38.53" width="0.17" height="58.01"/><rect class="cls-20" x="38.7" width="0.17" height="58.01"/><rect class="cls-20" x="38.86" width="0.17" height="58.01"/><rect class="cls-21" x="39.03" width="0.17" height="58.01"/><rect class="cls-21" x="39.2" width="0.17" height="58.01"/><rect class="cls-22" x="39.36" width="0.17" height="58.01"/><rect class="cls-23" x="39.53" width="0.17" height="58.01"/><rect class="cls-24" x="39.7" width="0.17" height="58.01"/><rect class="cls-25" x="39.86" width="0.17" height="58.01"/><rect class="cls-26" x="40.03" width="0.17" height="58.01"/><rect class="cls-27" x="40.2" width="0.17" height="58.01"/><rect class="cls-28" x="40.37" width="0.17" height="58.01"/><rect class="cls-29" x="40.53" width="0.17" height="58.01"/><rect class="cls-30" x="40.7" width="0.17" height="58.01"/><rect class="cls-31" x="40.87" width="0.17" height="58.01"/><rect class="cls-32" x="41.03" width="0.17" height="58.01"/><rect class="cls-33" x="41.2" width="0.17" height="58.01"/><rect class="cls-34" x="41.37" width="0.17" height="58.01"/><rect class="cls-35" x="41.54" width="0.17" height="58.01"/><rect class="cls-36" x="41.7" width="0.17" height="58.01"/><rect class="cls-37" x="41.87" width="0.17" height="58.01"/><rect class="cls-38" x="42.04" width="0.17" height="58.01"/><rect class="cls-39" x="42.2" width="0.17" height="58.01"/><rect class="cls-40" x="42.37" width="0.17" height="58.01"/><rect class="cls-41" x="42.54" width="0.17" height="58.01"/><rect class="cls-42" x="42.7" width="0.17" height="58.01"/><rect class="cls-43" x="42.87" width="0.17" height="58.01"/><rect class="cls-44" x="43.04" width="0.17" height="58.01"/><rect class="cls-45" x="43.21" width="0.17" height="58.01"/><rect class="cls-46" x="43.37" width="0.17" height="58.01"/><rect class="cls-47" x="43.54" width="0.17" height="58.01"/><rect class="cls-48" x="43.71" width="0.17" height="58.01"/><rect class="cls-49" x="43.87" width="0.17" height="58.01"/><rect class="cls-50" x="44.04" width="0.17" height="58.01"/><rect class="cls-51" x="44.21" width="0.17" height="58.01"/><rect class="cls-52" x="44.38" width="0.17" height="58.01"/><rect class="cls-53" x="44.54" width="0.17" height="58.01"/><rect class="cls-54" x="44.71" width="0.17" height="58.01"/><rect class="cls-55" x="44.88" width="0.17" height="58.01"/><rect class="cls-56" x="45.04" width="0.17" height="58.01"/><rect class="cls-57" x="45.21" width="0.17" height="58.01"/><rect class="cls-58" x="45.38" width="0.17" height="58.01"/><rect class="cls-59" x="45.54" width="0.17" height="58.01"/><rect class="cls-60" x="45.71" width="0.17" height="58.01"/><rect class="cls-61" x="45.88" width="0.17" height="58.01"/><rect class="cls-62" x="46.05" width="0.17" height="58.01"/><rect class="cls-63" x="46.21" width="0.17" height="58.01"/><rect class="cls-64" x="46.38" width="0.17" height="58.01"/><rect class="cls-65" x="46.55" width="0.17" height="58.01"/><rect class="cls-66" x="46.71" width="0.17" height="58.01"/><rect class="cls-67" x="46.88" width="0.17" height="58.01"/><rect class="cls-68" x="47.05" width="0.17" height="58.01"/><rect class="cls-69" x="47.22" width="0.17" height="58.01"/><rect class="cls-70" x="47.38" width="0.17" height="58.01"/><rect class="cls-71" x="47.55" width="0.17" height="58.01"/><rect class="cls-72" x="47.72" width="0.17" height="58.01"/><rect class="cls-73" x="47.88" width="0.17" height="58.01"/><rect class="cls-74" x="48.05" width="0.17" height="58.01"/><rect class="cls-74" x="48.22" width="0.14" height="58.01"/><rect class="cls-74" x="48.35" width="0.14" height="58.01"/><rect class="cls-75" x="48.49" width="0.14" height="58.01"/><rect class="cls-76" x="48.62" width="0.14" height="58.01"/><rect class="cls-76" x="48.76" width="0.14" height="58.01"/><rect class="cls-77" x="48.89" width="0.14" height="58.01"/><rect class="cls-78" x="49.03" width="0.14" height="58.01"/><rect class="cls-79" x="49.16" width="0.14" height="58.01"/><rect class="cls-80" x="49.3" width="0.14" height="58.01"/><rect class="cls-80" x="49.43" width="0.14" height="58.01"/><rect class="cls-81" x="49.57" width="0.14" height="58.01"/><rect class="cls-82" x="49.7" width="0.14" height="58.01"/><rect class="cls-82" x="49.84" width="0.14" height="58.01"/><rect class="cls-83" x="49.97" width="0.14" height="58.01"/><rect class="cls-84" x="50.11" width="0.14" height="58.01"/><rect class="cls-85" x="50.24" width="0.14" height="58.01"/><rect class="cls-86" x="50.38" width="0.14" height="58.01"/><rect class="cls-86" x="50.51" width="0.14" height="58.01"/><rect class="cls-87" x="50.65" width="0.14" height="58.01"/><rect class="cls-88" x="50.78" width="0.14" height="58.01"/><rect class="cls-88" x="50.92" width="0.14" height="58.01"/><rect class="cls-89" x="51.06" width="0.14" height="58.01"/><rect class="cls-90" x="51.19" width="0.14" height="58.01"/><rect class="cls-91" x="51.33" width="0.14" height="58.01"/><rect class="cls-92" x="51.46" width="0.14" height="58.01"/><rect class="cls-92" x="51.6" width="0.14" height="58.01"/><rect class="cls-93" x="51.73" width="0.14" height="58.01"/><rect class="cls-94" x="51.87" width="0.14" height="58.01"/><rect class="cls-94" x="52" width="0.14" height="58.01"/><rect class="cls-95" x="52.14" width="0.14" height="58.01"/><rect class="cls-95" x="52.27" width="0.14" height="58.01"/><rect class="cls-96" x="52.41" width="0.14" height="58.01"/><rect class="cls-97" x="52.54" width="0.14" height="58.01"/><rect class="cls-97" x="52.68" width="0.14" height="58.01"/><rect class="cls-98" x="52.81" width="0.14" height="58.01"/><rect class="cls-98" x="52.95" width="0.14" height="58.01"/><rect class="cls-99" x="53.08" width="0.14" height="58.01"/><rect class="cls-100" x="53.22" width="0.14" height="58.01"/><rect class="cls-101" x="53.35" width="0.14" height="58.01"/><rect class="cls-102" x="53.49" width="0.14" height="58.01"/><rect class="cls-103" x="53.62" width="0.14" height="58.01"/><rect class="cls-104" x="53.76" width="0.14" height="58.01"/><rect class="cls-105" x="53.89" width="0.14" height="58.01"/><rect class="cls-105" x="54.03" width="0.14" height="58.01"/><rect class="cls-106" x="54.16" width="0.14" height="58.01"/><rect class="cls-107" x="54.3" width="0.14" height="58.01"/><rect class="cls-108" x="54.43" width="0.14" height="58.01"/><rect class="cls-109" x="54.57" width="0.14" height="58.01"/><rect class="cls-109" x="54.7" width="0.14" height="58.01"/><rect class="cls-110" x="54.84" width="0.14" height="58.01"/><rect class="cls-111" x="54.97" width="0.14" height="58.01"/><rect class="cls-112" x="55.11" width="0.14" height="58.01"/><rect class="cls-113" x="55.24" width="0.14" height="58.01"/><rect class="cls-114" x="55.38" width="0.14" height="58.01"/><rect class="cls-115" x="55.51" width="0.14" height="58.01"/><rect class="cls-115" x="55.65" width="0.14" height="58.01"/><rect class="cls-116" x="55.78" width="0.14" height="58.01"/><rect class="cls-117" x="55.92" width="0.14" height="58.01"/><rect class="cls-118" x="56.05" width="0.14" height="58.01"/><rect class="cls-119" x="56.19" width="0.14" height="58.01"/><rect class="cls-119" x="56.33" width="0.14" height="58.01"/><rect class="cls-120" x="56.46" width="0.14" height="58.01"/><rect class="cls-120" x="56.6" width="0.14" height="58.01"/><rect class="cls-121" x="56.73" width="0.14" height="58.01"/><rect class="cls-122" x="56.87" width="0.14" height="58.01"/><rect class="cls-123" x="57" width="0.14" height="58.01"/><rect class="cls-124" x="57.14" width="0.14" height="58.01"/><rect class="cls-124" x="57.27" width="0.14" height="58.01"/><rect class="cls-125" x="57.41" width="0.14" height="58.01"/><rect class="cls-126" x="57.54" width="0.14" height="58.01"/><rect class="cls-127" x="57.68" width="0.14" height="58.01"/><rect class="cls-128" x="57.81" width="0.14" height="58.01"/><rect class="cls-129" x="57.95" width="0.14" height="58.01"/><rect class="cls-130" x="58.08" width="0.14" height="58.01"/><rect class="cls-130" x="58.22" width="0.14" height="58.01"/><rect class="cls-131" x="58.35" width="0.14" height="58.01"/><rect class="cls-132" x="58.49" width="0.14" height="58.01"/><rect class="cls-133" x="58.62" width="0.14" height="58.01"/><rect class="cls-134" x="58.76" width="0.14" height="58.01"/><rect class="cls-135" x="58.89" width="0.14" height="58.01"/><rect class="cls-136" x="59.03" width="0.14" height="58.01"/><rect class="cls-137" x="59.16" width="0.14" height="58.01"/><rect class="cls-137" x="59.3" width="0.14" height="58.01"/><rect class="cls-138" x="59.43" width="0.14" height="58.01"/><rect class="cls-139" x="59.57" width="0.14" height="58.01"/><rect class="cls-140" x="59.7" width="0.14" height="58.01"/><rect class="cls-141" x="59.84" width="0.14" height="58.01"/><rect class="cls-141" x="59.97" width="0.14" height="58.01"/><rect class="cls-142" x="60.11" width="0.14" height="58.01"/><rect class="cls-142" x="60.24" width="0.14" height="58.01"/><rect class="cls-143" x="60.38" width="0.14" height="58.01"/><rect class="cls-143" x="60.51" width="0.14" height="58.01"/><rect class="cls-144" x="60.65" width="0.14" height="58.01"/><rect class="cls-145" x="60.78" width="0.14" height="58.01"/><rect class="cls-145" x="60.92" width="41.97" height="58.01"/></g></g></g></svg>