<svg xmlns="http://www.w3.org/2000/svg" xmlns:xlink="http://www.w3.org/1999/xlink" viewBox="0 0 785.85 443.06"><defs><style>.cls-1{fill:none;}.cls-2{fill:#191919;}.cls-3{fill:#f89938;}.cls-4{clip-path:url(#clip-path);}.cls-5{fill:#3f3a38;}.cls-6{fill:#3f3b38;}.cls-7{fill:#403b39;}.cls-8{fill:#403c39;}.cls-9{fill:#413c39;}.cls-10{fill:#413c3a;}.cls-11{fill:#413d3a;}.cls-12{fill:#423d3a;}.cls-13{fill:#433e3b;}.cls-14{fill:#443e3b;}.cls-15{fill:#443f3c;}.cls-16{fill:#453f3c;}.cls-17{fill:#45403c;}.cls-18{fill:#46403d;}.cls-19{fill:#46413d;}.cls-20{fill:#47413d;}.cls-21{fill:#48423e;}.cls-22{fill:#49433e;}.cls-23{fill:#49433f;}.cls-24{fill:#4a443f;}.cls-25{fill:#4b4440;}.cls-26{fill:#4b4540;}.cls-27{fill:#4c4540;}.cls-28{fill:#4d4641;}.cls-29{fill:#4d4741;}.cls-30{fill:#4e4742;}.cls-31{fill:#4f4842;}.cls-32{fill:#504943;}.cls-33{fill:#514943;}.cls-34{fill:#524a44;}.cls-35{fill:#534b44;}.cls-36{fill:#544c45;}.cls-37{fill:#554c45;}.cls-38{fill:#564d46;}.cls-39{fill:#574e46;}.cls-40{fill:#584f47;}.cls-41{fill:#595047;}.cls-42{fill:#5b5148;}.cls-43{fill:#5c5148;}.cls-44{fill:#5d5249;}.cls-45{fill:#5f5349;}.cls-46{fill:#60544a;}.cls-47{fill:#61554a;}.cls-48{fill:#63564a;}.cls-49{fill:#64574b;}.cls-50{fill:#66584b;}.cls-51{fill:#68594c;}.cls-52{fill:#695a4c;}.cls-53{fill:#6b5b4c;}.cls-54{fill:#6c5c4c;}.cls-55{fill:#6e5d4d;}.cls-56{fill:#705e4d;}.cls-57{fill:#725f4d;}.cls-58{fill:#73604d;}.cls-59{fill:#75614d;}.cls-60{fill:#77624d;}.cls-61{fill:#79634d;}.cls-62{fill:#7b644d;}.cls-63{fill:#7d654d;}.cls-64{fill:#80664d;}.cls-65{fill:#82674d;}.cls-66{fill:#84684d;}.cls-67{fill:#87694c;}.cls-68{fill:#896a4c;}.cls-69{fill:#8c6b4c;}.cls-70{fill:#8e6c4b;}.cls-71{fill:#916c4b;}.cls-72{fill:#946d4a;}.cls-73{fill:#976e4a;}.cls-74{fill:#9a6f49;}.cls-75{fill:#9b7048;}.cls-76{fill:#9c7048;}.cls-77{fill:#9d7048;}.cls-78{fill:#9e7048;}.cls-79{fill:#9e7047;}.cls-80{fill:#9f7147;}.cls-81{fill:#a07147;}.cls-82{fill:#a17146;}.cls-83{fill:#a27146;}.cls-84{fill:#a37246;}.cls-85{fill:#a37245;}.cls-86{fill:#a47245;}.cls-87{fill:#a57245;}.cls-88{fill:#a67244;}.cls-89{fill:#a77344;}.cls-90{fill:#a77343;}.cls-91{fill:#a87343;}.cls-92{fill:#a97343;}.cls-93{fill:#aa7342;}.cls-94{fill:#ab7342;}.cls-95{fill:#ac7441;}.cls-96{fill:#ad7441;}.cls-97{fill:#ae7440;}.cls-98{fill:#af743f;}.cls-99{fill:#b0743f;}.cls-100{fill:#b1743e;}.cls-101{fill:#b1753e;}.cls-102{fill:#b2753e;}.cls-103{fill:#b2753d;}.cls-104{fill:#b3753d;}.cls-105{fill:#b4753c;}.cls-106{fill:#b5753c;}.cls-107{fill:#b5753b;}.cls-108{fill:#b6753b;}.cls-109{fill:#b7753a;}.cls-110{fill:#b8753a;}.cls-111{fill:#b87539;}.cls-112{fill:#b97539;}.cls-113{fill:#ba7538;}.cls-114{fill:#ba7638;}.cls-115{fill:#bb7637;}.cls-116{fill:#bc7637;}.cls-117{fill:#bc7636;}.cls-118{fill:#bd7636;}.cls-119{fill:#be7635;}.cls-120{fill:#bf7634;}.cls-121{fill:#c07634;}.cls-122{fill:#c07633;}.cls-123{fill:#c17633;}.cls-124{fill:#c27632;}.cls-125{fill:#c37632;}.cls-126{fill:#c37631;}.cls-127{fill:#c47631;}.cls-128{fill:#c47630;}.cls-129{fill:#c57630;}.cls-130{fill:#c6762f;}.cls-131{fill:#c7762f;}.cls-132{fill:#c7762e;}.cls-133{fill:#c8762e;}.cls-134{fill:#c8762d;}.cls-135{fill:#c9762d;}.cls-136{fill:#c9762c;}.cls-137{fill:#ca762c;}.cls-138{fill:#cb762b;}.cls-139{fill:#cc762b;}.cls-140{fill:#cc762a;}.cls-141{fill:#cd762a;}.cls-142{fill:#ce7629;}.cls-143{fill:#cf7529;}.cls-144{fill:#d07529;}.cls-145{fill:#d17528;}</style><clipPath id="clip-path" transform="translate(0.02 0.02)"><path class="cls-1" d="M785.8,222a133.12,133.12,0,0,1-14.31,59.12,170.37,170.37,0,0,1-16.11,26.06,210.51,210.51,0,0,1-20.17,23.06,283.89,283.89,0,0,1-48.07,37.91,395.74,395.74,0,0,1-54.22,28.54,495.53,495.53,0,0,1-57.64,20.88,583.67,583.67,0,0,1-59.64,14.26A677.7,677.7,0,0,1,393.6,443a679.46,679.46,0,0,1-122.12-10.73,585.5,585.5,0,0,1-59.75-14.07,496.45,496.45,0,0,1-57.8-20.7,396.13,396.13,0,0,1-54.44-28.45c-17.32-11-33.79-23.42-48.38-37.92A212.3,212.3,0,0,1,30.79,308a172,172,0,0,1-16.26-26.24,130.74,130.74,0,0,1-.16-119.49A171.23,171.23,0,0,1,30.59,135.9a212.88,212.88,0,0,1,20.28-23.27c14.57-14.56,31-27.09,48.34-38.11a398,398,0,0,1,54.45-28.65A498.55,498.55,0,0,1,211.51,25a578.52,578.52,0,0,1,59.8-14.2,683,683,0,0,1,244.5.42,576.42,576.42,0,0,1,59.7,14.42,496.25,496.25,0,0,1,57.67,21.05,396.24,396.24,0,0,1,54.21,28.74,284.34,284.34,0,0,1,48,38.09,211.17,211.17,0,0,1,20.14,23.15,169.86,169.86,0,0,1,16.06,26.12A133.14,133.14,0,0,1,785.8,222Zm-.4,0A132.71,132.71,0,0,0,771,163.13a168.73,168.73,0,0,0-16.12-25.93,210.24,210.24,0,0,0-20.16-22.94A242.8,242.8,0,0,0,711.66,94.2q-12.1-9.35-25.1-17.44a394.9,394.9,0,0,0-54.23-28.09,494.7,494.7,0,0,0-57.6-20.38Q560,24.06,545.15,20.62c-9.92-2.31-19.91-4.3-29.93-6.13a696.08,696.08,0,0,0-243.16.42c-10,1.86-20,3.89-29.89,6.23s-19.75,4.93-29.52,7.79a494.89,494.89,0,0,0-57.42,20.58,393.34,393.34,0,0,0-54,28.19C84.08,88.55,67.79,100.88,53.4,115.17a208.53,208.53,0,0,0-20,22.82,168.2,168.2,0,0,0-16,25.73,127.36,127.36,0,0,0-.15,116.63,168,168,0,0,0,15.92,25.82,208.86,208.86,0,0,0,20,22.9c14.37,14.36,30.65,26.74,47.8,37.66a394,394,0,0,0,54,28.39,495.65,495.65,0,0,0,57.46,20.73A580,580,0,0,0,271.89,430,676.71,676.71,0,0,0,393.6,441a676.73,676.73,0,0,0,121.79-10.56,581.68,581.68,0,0,0,59.57-14,492.45,492.45,0,0,0,57.63-20.56,394.35,394.35,0,0,0,54.23-28.28c8.63-5.44,17-11.27,25.08-17.53a244.81,244.81,0,0,0,23-20.15,209.6,209.6,0,0,0,20.13-23,169.63,169.63,0,0,0,16.08-26A132.89,132.89,0,0,0,785.4,222Z"/></clipPath></defs><g id="Layer_2" data-name="Layer 2"><g id="Layer_1-2" data-name="Layer 1"><path class="cls-2" d="M300,128c-7.68,0-13.92,7-13.92,15.57s6.24,15.56,13.92,15.56,13.91-7,13.91-15.56S307.63,128,300,128Zm0,22.12c-3.24,0-5.86-2.93-5.86-6.55S296.71,137,300,137s5.86,2.93,5.86,6.56S303.19,150.11,300,150.11Z" transform="translate(0.02 0.02)"/><path class="cls-3" d="M290.91,85.75c-1.46.43-2.88.92-4.26,1.46a16.91,16.91,0,0,1-12.07.1,50.18,50.18,0,0,0-31.93-1,53,53,0,0,0-18.5,9.88c-12.39,10.21-25.24,34.47-19.14,60.52,4.5,19.2,18.1,33.9,35,38.34a45.82,45.82,0,0,0-3.58,11.74,47.55,47.55,0,0,0-.62,7.05,5.22,5.22,0,0,1-1.19-.27c-21.52-7.66-39.13-26.24-45.55-51.34a79.44,79.44,0,0,1,18.09-73.29,70.48,70.48,0,0,1,31.75-20A66.63,66.63,0,0,1,292,75.41C296.17,77.83,295.49,84.39,290.91,85.75Z" transform="translate(0.02 0.02)"/><path class="cls-2" d="M270.31,297.67a70.66,70.66,0,0,1-42.93-33.84c-6.32-11-10.18-23.13-10.28-35.24-.23-26.86,10.9-53.67,33.9-68.69a68.85,68.85,0,0,1,14.07-7.05c9-3.26,17.6,5.48,15.32,15.28l0,.21A51.24,51.24,0,0,0,261,176a57,57,0,0,0-24.61,37.45A60.81,60.81,0,0,0,237.87,242a58.77,58.77,0,0,0,5.32,12.39,54.53,54.53,0,0,0,24.67,22.75h0c2.56,1,9.72,3.3,9.72,3.3,6.5,2.64,434.75,9.76,435.43,16S303.45,306.36,270.31,297.67Z" transform="translate(0.02 0.02)"/><path class="cls-3" d="M292.06,281.53a82.06,82.06,0,0,1-1.71,11.86,77.09,77.09,0,0,1-16,32.74,70,70,0,0,1-34.19,22.72c-22.38,6.58-47.33,1.34-66-16.31a74.37,74.37,0,0,1-9.55-11c-5.4-7.59-.9-18.53,8-19.27l.06,0a56.43,56.43,0,0,0,12,16.4,51.48,51.48,0,0,0,37.45,14.35,52.15,52.15,0,0,0,38.18-19.19,58.87,58.87,0,0,0,13.41-34.74c.08-1.47.09-2.91.07-4.34a62.11,62.11,0,0,0-2.52-16.17,57.3,57.3,0,0,0-15.49-25.31,53.94,53.94,0,0,0-11.75-8.44V204.36a70,70,0,0,1,24.27,15,76.73,76.73,0,0,1,22.87,43.85A80.54,80.54,0,0,1,292.06,281.53Z" transform="translate(0.02 0.02)"/><path class="cls-2" d="M388.26,189l5.31,8.17,3.06,4.5a50.2,50.2,0,0,1,8.89,28.28c0,9.66-3.92,18.13-9.16,25.4q-10.74,15-28.11,15a27.68,27.68,0,0,1-22.06-10.09q-8.6-10.1-8.6-25.86,0-19.27,13.39-32.15,7.11-6.83,13.11-6.82a6.5,6.5,0,0,1,5.08,2.18,8.08,8.08,0,0,1,2,5.63q0,4.64-4.5,8L362,214.67a23.25,23.25,0,0,0-6.64,8.45,24.13,24.13,0,0,0-2.65,10.69q0,8.37,4.64,13.83a14.86,14.86,0,0,0,11.81,5.45q7.9,0,13.74-7.21c3.89-4.81,7.14-10.47,7.14-17a26.4,26.4,0,0,0-2.36-11.26c-1.58-3.38-6.3-8.61-11.53-15.69A66.28,66.28,0,0,1,368.3,189H352.72q-8,0-8-6.68c0-3.24.93-5.73,2.8-7.49s4.49-2.64,7.88-2.64h9.87q1.15-13.94,10.45-23c6.2-6.08,14.94-9.11,23.6-9.11q9.75,0,15.9,6.54t6.15,17q0,13.86-9.76,21.24Q406.11,189,394,189ZM380,172.18h15.17q11.71,0,11.72-8.3a6.4,6.4,0,0,0-2.4-5.21,9.72,9.72,0,0,0-6.37-2,16.37,16.37,0,0,0-11.35,4.71C383.38,164.56,380.25,168.15,380,172.18Z" transform="translate(0.02 0.02)"/><path class="cls-2" d="M459.67,215.31l8.95,17.1a11.93,11.93,0,0,1,1.67,5.2,8.76,8.76,0,0,1-2.22,5.84,6.48,6.48,0,0,1-5,2.61q-2.43,0-4.22-3.17l-.69-1.27-13.4-24.41-6.46,19.49q-3.12,9.36-9.12,9.36a5.47,5.47,0,0,1-4.19-1.87,6.49,6.49,0,0,1-1.7-4.54,14.81,14.81,0,0,1,.92-4.71l.64-1.9,24.71-74.23.63-1.89q2.66-7.89,8.49-7.88a5.32,5.32,0,0,1,4.15,2,6.86,6.86,0,0,1,1.74,4.71,15.34,15.34,0,0,1-.93,4.85l-.63,1.9L448.3,206.66l13-11.75q4-3.66,6.92-3.66a5.1,5.1,0,0,1,4.05,1.9,7,7,0,0,1,1.61,4.71q0,4.71-4.27,8.59l-1.33,1.19Z" transform="translate(0.02 0.02)"/><path class="cls-2" d="M529.23,227.21h6.67q7.3,0,7.31,6.24a8.68,8.68,0,0,1-2.56,6.66c-1.71,1.59-5.41,2.39-8.47,2.39h-9.32a126,126,0,0,1-6.05,16Q509.22,276,494.72,276a19,19,0,0,1-14.79-6.73,24.2,24.2,0,0,1-6-16.69c0-4.62,2.39-8.94,4.55-12.93a22.25,22.25,0,0,1,8.55-9q6.09-3.43,18-3.44h9.38l1.67-5.05a17.43,17.43,0,0,1-7.83,2.18,13.13,13.13,0,0,1-13.81-13.75q0-3.72,2.48-11.15l6.27-18.86.63-2q2.76-7.94,8.57-7.93a5.36,5.36,0,0,1,4.23,2,7.33,7.33,0,0,1,1.7,5,24.38,24.38,0,0,1-1.5,6.6L511.22,201a27.4,27.4,0,0,0-1.39,5.25q-.16,3.44,3.57,3.44a9.57,9.57,0,0,0,5.41-1.89,8.42,8.42,0,0,0,3.51-4.28L530,180.58l.58-2q2.7-7.94,8.57-7.93a5.33,5.33,0,0,1,4.23,2,7.38,7.38,0,0,1,1.7,4.94,15.36,15.36,0,0,1-.87,4.7l-.69,1.9ZM509.1,242.5H501q-13.27,0-13.28,10.13a8.75,8.75,0,0,0,1.82,5.77,6,6,0,0,0,4.88,2.18q4.21,0,7.47-4T509.1,242.5Z" transform="translate(0.02 0.02)"/><path class="cls-2" d="M583.88,173.71h-7.12q-6.4,0-6.41-6.76a10.25,10.25,0,0,1,2.63-7.17,8.36,8.36,0,0,1,6.44-2.89h18.47q17,0,26,9.85T633,195.1c0,18.81-6.44,36-16.72,51.71q-8.71,13.23-19.72,19.27c-14.74,8.11-28.4,5.67-45.44,2.62m20.65-14h2.31c11.93,0,23.23-6.45,31.27-19.35a85.36,85.36,0,0,0,9.21-20.12,67.84,67.84,0,0,0,3.38-20.06q0-10.26-4.74-16.18a15.61,15.61,0,0,0-12.87-5.91Z" transform="translate(0.02 0.02)"/><path class="cls-2" d="M659.35,233.32h6.5q7.24,0,7.25,6.25c0,2.85-2.16,5.07-3.87,6.66s-4.09,2.38-7.16,2.38h-9.15q-5.05,0-8-2.52c-1.94-1.69-1.6-4-1.6-6.88a19.19,19.19,0,0,1,1.21-5.89l9.49-28.47.64-2q2.76-8.25,9-7.91a4.84,4.84,0,0,1,2.81,1.12,6.89,6.89,0,0,1,2.62,5.53,24.4,24.4,0,0,1-1.55,6.87ZM667,171.86a7.11,7.11,0,0,1,5.69,2.85,11.43,11.43,0,0,1,0,13.86,7.1,7.1,0,0,1-11.37,0,11.43,11.43,0,0,1,0-13.86A7.1,7.1,0,0,1,667,171.86Z" transform="translate(0.02 0.02)"/><g class="cls-4"><rect class="cls-5" x="3.21" y="3.91" width="192.82" height="437.2"/><rect class="cls-5" x="196.03" y="3.91" width="1.28" height="437.2"/><rect class="cls-5" x="197.3" y="3.91" width="1.28" height="437.2"/><rect class="cls-5" x="198.58" y="3.91" width="1.28" height="437.2"/><rect class="cls-5" x="199.86" y="3.91" width="1.28" height="437.2"/><rect class="cls-5" x="201.13" y="3.91" width="1.28" height="437.2"/><rect class="cls-5" x="202.41" y="3.91" width="1.28" height="437.2"/><rect class="cls-5" x="203.68" y="3.91" width="1.28" height="437.2"/><rect class="cls-5" x="204.96" y="3.91" width="1.28" height="437.2"/><rect class="cls-5" x="206.24" y="3.91" width="1.28" height="437.2"/><rect class="cls-5" x="207.51" y="3.91" width="1.28" height="437.2"/><rect class="cls-5" x="208.79" y="3.91" width="1.28" height="437.2"/><rect class="cls-5" x="210.06" y="3.91" width="1.28" height="437.2"/><rect class="cls-5" x="211.34" y="3.91" width="1.28" height="437.2"/><rect class="cls-5" x="212.62" y="3.91" width="1.28" height="437.2"/><rect class="cls-5" x="213.89" y="3.91" width="1.28" height="437.2"/><rect class="cls-5" x="215.17" y="3.91" width="1.28" height="437.2"/><rect class="cls-5" x="216.44" y="3.91" width="1.28" height="437.2"/><rect class="cls-5" x="217.72" y="3.91" width="1.28" height="437.2"/><rect class="cls-5" x="219" y="3.91" width="1.28" height="437.2"/><rect class="cls-5" x="220.27" y="3.91" width="1.28" height="437.2"/><rect class="cls-5" x="221.55" y="3.91" width="1.28" height="437.2"/><rect class="cls-5" x="222.82" y="3.91" width="1.28" height="437.2"/><rect class="cls-5" x="224.1" y="3.91" width="1.28" height="437.2"/><rect class="cls-5" x="225.37" y="3.91" width="1.28" height="437.2"/><rect class="cls-5" x="226.65" y="3.91" width="1.28" height="437.2"/><rect class="cls-5" x="227.93" y="3.91" width="1.28" height="437.2"/><rect class="cls-5" x="229.2" y="3.91" width="1.28" height="437.2"/><rect class="cls-5" x="230.48" y="3.91" width="1.28" height="437.2"/><rect class="cls-5" x="231.75" y="3.91" width="1.28" height="437.2"/><rect class="cls-5" x="233.03" y="3.91" width="1.28" height="437.2"/><rect class="cls-5" x="234.31" y="3.91" width="1.28" height="437.2"/><rect class="cls-5" x="235.58" y="3.91" width="1.28" height="437.2"/><rect class="cls-5" x="236.86" y="3.91" width="1.28" height="437.2"/><rect class="cls-5" x="238.13" y="3.91" width="1.28" height="437.2"/><rect class="cls-5" x="239.41" y="3.91" width="1.28" height="437.2"/><rect class="cls-5" x="240.69" y="3.91" width="1.28" height="437.2"/><rect class="cls-5" x="241.96" y="3.91" width="1.28" height="437.2"/><rect class="cls-5" x="243.24" y="3.91" width="1.28" height="437.2"/><rect class="cls-5" x="244.51" y="3.91" width="1.28" height="437.2"/><rect class="cls-5" x="245.79" y="3.91" width="1.28" height="437.2"/><rect class="cls-5" x="247.07" y="3.91" width="1.28" height="437.2"/><rect class="cls-5" x="248.34" y="3.91" width="1.28" height="437.2"/><rect class="cls-5" x="249.62" y="3.91" width="1.28" height="437.2"/><rect class="cls-5" x="250.89" y="3.91" width="1.28" height="437.2"/><rect class="cls-6" x="252.17" y="3.91" width="1.28" height="437.2"/><rect class="cls-6" x="253.45" y="3.91" width="1.28" height="437.2"/><rect class="cls-6" x="254.72" y="3.91" width="1.28" height="437.2"/><rect class="cls-6" x="256" y="3.91" width="1.28" height="437.2"/><rect class="cls-6" x="257.27" y="3.91" width="1.28" height="437.2"/><rect class="cls-6" x="258.55" y="3.91" width="1.28" height="437.2"/><rect class="cls-6" x="259.83" y="3.91" width="1.28" height="437.2"/><rect class="cls-7" x="261.1" y="3.91" width="1.28" height="437.2"/><rect class="cls-7" x="262.38" y="3.91" width="1.28" height="437.2"/><rect class="cls-7" x="263.65" y="3.91" width="1.28" height="437.2"/><rect class="cls-7" x="264.93" y="3.91" width="1.28" height="437.2"/><rect class="cls-7" x="266.2" y="3.91" width="1.28" height="437.2"/><rect class="cls-7" x="267.48" y="3.91" width="1.28" height="437.2"/><rect class="cls-8" x="268.76" y="3.91" width="1.28" height="437.2"/><rect class="cls-8" x="270.03" y="3.91" width="1.28" height="437.2"/><rect class="cls-9" x="271.31" y="3.91" width="1.28" height="437.2"/><rect class="cls-9" x="272.58" y="3.91" width="1.28" height="437.2"/><rect class="cls-9" x="273.86" y="3.91" width="1.28" height="437.2"/><rect class="cls-10" x="275.14" y="3.91" width="1.28" height="437.2"/><rect class="cls-11" x="276.41" y="3.91" width="1.28" height="437.2"/><rect class="cls-12" x="277.69" y="3.91" width="1.28" height="437.2"/><rect class="cls-12" x="278.96" y="3.91" width="1.28" height="437.2"/><rect class="cls-12" x="280.24" y="3.91" width="1.28" height="437.2"/><rect class="cls-12" x="281.52" y="3.91" width="1.28" height="437.2"/><rect class="cls-13" x="282.79" y="3.91" width="1.28" height="437.2"/><rect class="cls-13" x="284.07" y="3.91" width="1.28" height="437.2"/><rect class="cls-13" x="285.34" y="3.91" width="1.28" height="437.2"/><rect class="cls-14" x="286.62" y="3.91" width="1.28" height="437.2"/><rect class="cls-15" x="287.9" y="3.91" width="1.28" height="437.2"/><rect class="cls-15" x="289.17" y="3.91" width="1.28" height="437.2"/><rect class="cls-16" x="290.45" y="3.91" width="1.28" height="437.2"/><rect class="cls-17" x="291.72" y="3.91" width="1.28" height="437.2"/><rect class="cls-18" x="293" y="3.91" width="1.28" height="437.2"/><rect class="cls-19" x="294.28" y="3.91" width="1.28" height="437.2"/><rect class="cls-20" x="295.55" y="3.91" width="1.28" height="437.2"/><rect class="cls-20" x="296.83" y="3.91" width="1.28" height="437.2"/><rect class="cls-21" x="298.1" y="3.91" width="1.28" height="437.2"/><rect class="cls-21" x="299.38" y="3.91" width="1.28" height="437.2"/><rect class="cls-22" x="300.66" y="3.91" width="1.28" height="437.2"/><rect class="cls-23" x="301.93" y="3.91" width="1.28" height="437.2"/><rect class="cls-24" x="303.21" y="3.91" width="1.28" height="437.2"/><rect class="cls-25" x="304.48" y="3.91" width="1.28" height="437.2"/><rect class="cls-26" x="305.76" y="3.91" width="1.28" height="437.2"/><rect class="cls-27" x="307.03" y="3.91" width="1.28" height="437.2"/><rect class="cls-28" x="308.31" y="3.91" width="1.28" height="437.2"/><rect class="cls-29" x="309.59" y="3.91" width="1.28" height="437.2"/><rect class="cls-30" x="310.86" y="3.91" width="1.28" height="437.2"/><rect class="cls-31" x="312.14" y="3.91" width="1.28" height="437.2"/><rect class="cls-32" x="313.41" y="3.91" width="1.28" height="437.2"/><rect class="cls-33" x="314.69" y="3.91" width="1.28" height="437.2"/><rect class="cls-34" x="315.97" y="3.91" width="1.28" height="437.2"/><rect class="cls-35" x="317.24" y="3.91" width="1.28" height="437.2"/><rect class="cls-36" x="318.52" y="3.91" width="1.28" height="437.2"/><rect class="cls-37" x="319.79" y="3.91" width="1.28" height="437.2"/><rect class="cls-38" x="321.07" y="3.91" width="1.28" height="437.2"/><rect class="cls-39" x="322.35" y="3.91" width="1.28" height="437.2"/><rect class="cls-40" x="323.62" y="3.91" width="1.28" height="437.2"/><rect class="cls-41" x="324.9" y="3.91" width="1.28" height="437.2"/><rect class="cls-42" x="326.17" y="3.91" width="1.28" height="437.2"/><rect class="cls-43" x="327.45" y="3.91" width="1.28" height="437.2"/><rect class="cls-44" x="328.73" y="3.91" width="1.28" height="437.2"/><rect class="cls-45" x="330" y="3.91" width="1.28" height="437.2"/><rect class="cls-46" x="331.28" y="3.91" width="1.28" height="437.2"/><rect class="cls-47" x="332.55" y="3.91" width="1.28" height="437.2"/><rect class="cls-48" x="333.83" y="3.91" width="1.28" height="437.2"/><rect class="cls-49" x="335.11" y="3.91" width="1.28" height="437.2"/><rect class="cls-50" x="336.38" y="3.91" width="1.28" height="437.2"/><rect class="cls-51" x="337.66" y="3.91" width="1.28" height="437.2"/><rect class="cls-52" x="338.93" y="3.91" width="1.28" height="437.2"/><rect class="cls-53" x="340.21" y="3.91" width="1.28" height="437.2"/><rect class="cls-54" x="341.49" y="3.91" width="1.28" height="437.2"/><rect class="cls-55" x="342.76" y="3.91" width="1.28" height="437.2"/><rect class="cls-56" x="344.04" y="3.91" width="1.28" height="437.2"/><rect class="cls-57" x="345.31" y="3.91" width="1.28" height="437.2"/><rect class="cls-58" x="346.59" y="3.91" width="1.28" height="437.2"/><rect class="cls-59" x="347.86" y="3.91" width="1.28" height="437.2"/><rect class="cls-60" x="349.14" y="3.91" width="1.28" height="437.2"/><rect class="cls-61" x="350.42" y="3.91" width="1.28" height="437.2"/><rect class="cls-62" x="351.69" y="3.91" width="1.28" height="437.2"/><rect class="cls-63" x="352.97" y="3.91" width="1.28" height="437.2"/><rect class="cls-64" x="354.24" y="3.91" width="1.28" height="437.2"/><rect class="cls-65" x="355.52" y="3.91" width="1.28" height="437.2"/><rect class="cls-66" x="356.8" y="3.91" width="1.28" height="437.2"/><rect class="cls-67" x="358.07" y="3.91" width="1.28" height="437.2"/><rect class="cls-68" x="359.35" y="3.91" width="1.28" height="437.2"/><rect class="cls-69" x="360.62" y="3.91" width="1.28" height="437.2"/><rect class="cls-70" x="361.9" y="3.91" width="1.28" height="437.2"/><rect class="cls-71" x="363.18" y="3.91" width="1.28" height="437.2"/><rect class="cls-72" x="364.45" y="3.91" width="1.28" height="437.2"/><rect class="cls-73" x="365.73" y="3.91" width="1.28" height="437.2"/><rect class="cls-74" x="367" y="3.91" width="1.28" height="437.2"/><rect class="cls-74" x="368.28" y="3.91" width="1.03" height="437.2"/><rect class="cls-74" x="369.31" y="3.91" width="1.03" height="437.2"/><rect class="cls-75" x="370.34" y="3.91" width="1.03" height="437.2"/><rect class="cls-76" x="371.38" y="3.91" width="1.03" height="437.2"/><rect class="cls-76" x="372.41" y="3.91" width="1.03" height="437.2"/><rect class="cls-77" x="373.44" y="3.91" width="1.03" height="437.2"/><rect class="cls-78" x="374.47" y="3.91" width="1.03" height="437.2"/><rect class="cls-79" x="375.5" y="3.91" width="1.03" height="437.2"/><rect class="cls-80" x="376.54" y="3.91" width="1.03" height="437.2"/><rect class="cls-80" x="377.57" y="3.91" width="1.03" height="437.2"/><rect class="cls-81" x="378.6" y="3.91" width="1.03" height="437.2"/><rect class="cls-82" x="379.63" y="3.91" width="1.03" height="437.2"/><rect class="cls-82" x="380.66" y="3.91" width="1.03" height="437.2"/><rect class="cls-83" x="381.7" y="3.91" width="1.03" height="437.2"/><rect class="cls-84" x="382.73" y="3.91" width="1.03" height="437.2"/><rect class="cls-85" x="383.76" y="3.91" width="1.03" height="437.2"/><rect class="cls-86" x="384.79" y="3.91" width="1.03" height="437.2"/><rect class="cls-86" x="385.82" y="3.91" width="1.03" height="437.2"/><rect class="cls-87" x="386.86" y="3.91" width="1.03" height="437.2"/><rect class="cls-88" x="387.89" y="3.91" width="1.03" height="437.2"/><rect class="cls-88" x="388.92" y="3.91" width="1.03" height="437.2"/><rect class="cls-89" x="389.95" y="3.91" width="1.03" height="437.2"/><rect class="cls-90" x="390.99" y="3.91" width="1.03" height="437.2"/><rect class="cls-91" x="392.02" y="3.91" width="1.03" height="437.2"/><rect class="cls-92" x="393.05" y="3.91" width="1.03" height="437.2"/><rect class="cls-92" x="394.08" y="3.91" width="1.03" height="437.2"/><rect class="cls-93" x="395.11" y="3.91" width="1.03" height="437.2"/><rect class="cls-94" x="396.15" y="3.91" width="1.03" height="437.2"/><rect class="cls-94" x="397.18" y="3.91" width="1.03" height="437.2"/><rect class="cls-95" x="398.21" y="3.91" width="1.03" height="437.2"/><rect class="cls-95" x="399.24" y="3.91" width="1.03" height="437.2"/><rect class="cls-96" x="400.27" y="3.91" width="1.03" height="437.2"/><rect class="cls-97" x="401.31" y="3.91" width="1.03" height="437.2"/><rect class="cls-97" x="402.34" y="3.91" width="1.03" height="437.2"/><rect class="cls-98" x="403.37" y="3.91" width="1.03" height="437.2"/><rect class="cls-98" x="404.4" y="3.91" width="1.03" height="437.2"/><rect class="cls-99" x="405.43" y="3.91" width="1.03" height="437.2"/><rect class="cls-100" x="406.47" y="3.91" width="1.03" height="437.2"/><rect class="cls-101" x="407.5" y="3.91" width="1.03" height="437.2"/><rect class="cls-102" x="408.53" y="3.91" width="1.03" height="437.2"/><rect class="cls-103" x="409.56" y="3.91" width="1.03" height="437.2"/><rect class="cls-104" x="410.59" y="3.91" width="1.03" height="437.2"/><rect class="cls-105" x="411.63" y="3.91" width="1.03" height="437.2"/><rect class="cls-105" x="412.66" y="3.91" width="1.03" height="437.2"/><rect class="cls-106" x="413.69" y="3.91" width="1.03" height="437.2"/><rect class="cls-107" x="414.72" y="3.91" width="1.03" height="437.2"/><rect class="cls-108" x="415.76" y="3.91" width="1.03" height="437.2"/><rect class="cls-109" x="416.79" y="3.91" width="1.03" height="437.2"/><rect class="cls-109" x="417.82" y="3.91" width="1.03" height="437.2"/><rect class="cls-110" x="418.85" y="3.91" width="1.03" height="437.2"/><rect class="cls-111" x="419.88" y="3.91" width="1.03" height="437.2"/><rect class="cls-112" x="420.92" y="3.91" width="1.03" height="437.2"/><rect class="cls-113" x="421.95" y="3.91" width="1.03" height="437.2"/><rect class="cls-114" x="422.98" y="3.91" width="1.03" height="437.2"/><rect class="cls-115" x="424.01" y="3.91" width="1.03" height="437.2"/><rect class="cls-115" x="425.04" y="3.91" width="1.03" height="437.2"/><rect class="cls-116" x="426.08" y="3.91" width="1.03" height="437.2"/><rect class="cls-117" x="427.11" y="3.91" width="1.03" height="437.2"/><rect class="cls-118" x="428.14" y="3.91" width="1.03" height="437.2"/><rect class="cls-119" x="429.17" y="3.91" width="1.03" height="437.2"/><rect class="cls-119" x="430.2" y="3.91" width="1.03" height="437.2"/><rect class="cls-120" x="431.24" y="3.91" width="1.03" height="437.2"/><rect class="cls-120" x="432.27" y="3.91" width="1.03" height="437.2"/><rect class="cls-121" x="433.3" y="3.91" width="1.03" height="437.2"/><rect class="cls-122" x="434.33" y="3.91" width="1.03" height="437.2"/><rect class="cls-123" x="435.36" y="3.91" width="1.03" height="437.2"/><rect class="cls-124" x="436.4" y="3.91" width="1.03" height="437.2"/><rect class="cls-124" x="437.43" y="3.91" width="1.03" height="437.2"/><rect class="cls-125" x="438.46" y="3.91" width="1.03" height="437.2"/><rect class="cls-126" x="439.49" y="3.91" width="1.03" height="437.2"/><rect class="cls-127" x="440.52" y="3.91" width="1.03" height="437.2"/><rect class="cls-128" x="441.56" y="3.91" width="1.03" height="437.2"/><rect class="cls-129" x="442.59" y="3.91" width="1.03" height="437.2"/><rect class="cls-130" x="443.62" y="3.91" width="1.03" height="437.2"/><rect class="cls-130" x="444.65" y="3.91" width="1.03" height="437.2"/><rect class="cls-131" x="445.69" y="3.91" width="1.03" height="437.2"/><rect class="cls-132" x="446.72" y="3.91" width="1.03" height="437.2"/><rect class="cls-133" x="447.75" y="3.91" width="1.03" height="437.2"/><rect class="cls-134" x="448.78" y="3.91" width="1.03" height="437.2"/><rect class="cls-135" x="449.81" y="3.91" width="1.03" height="437.2"/><rect class="cls-136" x="450.85" y="3.91" width="1.03" height="437.2"/><rect class="cls-137" x="451.88" y="3.91" width="1.03" height="437.2"/><rect class="cls-137" x="452.91" y="3.91" width="1.03" height="437.2"/><rect class="cls-138" x="453.94" y="3.91" width="1.03" height="437.2"/><rect class="cls-139" x="454.97" y="3.91" width="1.03" height="437.2"/><rect class="cls-140" x="456.01" y="3.91" width="1.03" height="437.2"/><rect class="cls-141" x="457.04" y="3.91" width="1.03" height="437.2"/><rect class="cls-141" x="458.07" y="3.91" width="1.03" height="437.2"/><rect class="cls-142" x="459.1" y="3.91" width="1.03" height="437.2"/><rect class="cls-142" x="460.13" y="3.91" width="1.03" height="437.2"/><rect class="cls-143" x="461.17" y="3.91" width="1.03" height="437.2"/><rect class="cls-143" x="462.2" y="3.91" width="1.03" height="437.2"/><rect class="cls-144" x="463.23" y="3.91" width="1.03" height="437.2"/><rect class="cls-145" x="464.26" y="3.91" width="1.03" height="437.2"/><rect class="cls-145" x="465.29" y="3.91" width="320.12" height="437.2"/><rect class="cls-5" width="196.03" height="443.06"/><rect class="cls-5" x="196.03" width="1.28" height="443.06"/><rect class="cls-5" x="197.3" width="1.28" height="443.06"/><rect class="cls-5" x="198.58" width="1.28" height="443.06"/><rect class="cls-5" x="199.86" width="1.28" height="443.06"/><rect class="cls-5" x="201.13" width="1.28" height="443.06"/><rect class="cls-5" x="202.41" width="1.28" height="443.06"/><rect class="cls-5" x="203.68" width="1.28" height="443.06"/><rect class="cls-5" x="204.96" width="1.28" height="443.06"/><rect class="cls-5" x="206.24" width="1.28" height="443.06"/><rect class="cls-5" x="207.51" width="1.28" height="443.06"/><rect class="cls-5" x="208.79" width="1.28" height="443.06"/><rect class="cls-5" x="210.06" width="1.28" height="443.06"/><rect class="cls-5" x="211.34" width="1.28" height="443.06"/><rect class="cls-5" x="212.62" width="1.28" height="443.06"/><rect class="cls-5" x="213.89" width="1.28" height="443.06"/><rect class="cls-5" x="215.17" width="1.28" height="443.06"/><rect class="cls-5" x="216.44" width="1.28" height="443.06"/><rect class="cls-5" x="217.72" width="1.28" height="443.06"/><rect class="cls-5" x="219" width="1.28" height="443.06"/><rect class="cls-5" x="220.27" width="1.28" height="443.06"/><rect class="cls-5" x="221.55" width="1.28" height="443.06"/><rect class="cls-5" x="222.82" width="1.28" height="443.06"/><rect class="cls-5" x="224.1" width="1.28" height="443.06"/><rect class="cls-5" x="225.37" width="1.28" height="443.06"/><rect class="cls-5" x="226.65" width="1.28" height="443.06"/><rect class="cls-5" x="227.93" width="1.28" height="443.06"/><rect class="cls-5" x="229.2" width="1.28" height="443.06"/><rect class="cls-5" x="230.48" width="1.28" height="443.06"/><rect class="cls-5" x="231.75" width="1.28" height="443.06"/><rect class="cls-5" x="233.03" width="1.28" height="443.06"/><rect class="cls-5" x="234.31" width="1.28" height="443.06"/><rect class="cls-5" x="235.58" width="1.28" height="443.06"/><rect class="cls-5" x="236.86" width="1.28" height="443.06"/><rect class="cls-5" x="238.13" width="1.28" height="443.06"/><rect class="cls-5" x="239.41" width="1.28" height="443.06"/><rect class="cls-5" x="240.69" width="1.28" height="443.06"/><rect class="cls-5" x="241.96" width="1.28" height="443.06"/><rect class="cls-5" x="243.24" width="1.28" height="443.06"/><rect class="cls-5" x="244.51" width="1.28" height="443.06"/><rect class="cls-5" x="245.79" width="1.28" height="443.06"/><rect class="cls-5" x="247.07" width="1.28" height="443.06"/><rect class="cls-5" x="248.34" width="1.28" height="443.06"/><rect class="cls-5" x="249.62" width="1.28" height="443.06"/><rect class="cls-5" x="250.89" width="1.28" height="443.06"/><rect class="cls-6" x="252.17" width="1.28" height="443.06"/><rect class="cls-6" x="253.45" width="1.28" height="443.06"/><rect class="cls-6" x="254.72" width="1.28" height="443.06"/><rect class="cls-6" x="256" width="1.28" height="443.06"/><rect class="cls-6" x="257.27" width="1.28" height="443.06"/><rect class="cls-6" x="258.55" width="1.28" height="443.06"/><rect class="cls-6" x="259.83" width="1.28" height="443.06"/><rect class="cls-7" x="261.1" width="1.28" height="443.06"/><rect class="cls-7" x="262.38" width="1.28" height="443.06"/><rect class="cls-7" x="263.65" width="1.28" height="443.06"/><rect class="cls-7" x="264.93" width="1.28" height="443.06"/><rect class="cls-7" x="266.2" width="1.28" height="443.06"/><rect class="cls-7" x="267.48" width="1.28" height="443.06"/><rect class="cls-8" x="268.76" width="1.28" height="443.06"/><rect class="cls-8" x="270.03" width="1.28" height="443.06"/><rect class="cls-9" x="271.31" width="1.28" height="443.06"/><rect class="cls-9" x="272.58" width="1.28" height="443.06"/><rect class="cls-9" x="273.86" width="1.28" height="443.06"/><rect class="cls-10" x="275.14" width="1.28" height="443.06"/><rect class="cls-11" x="276.41" width="1.28" height="443.06"/><rect class="cls-12" x="277.69" width="1.28" height="443.06"/><rect class="cls-12" x="278.96" width="1.28" height="443.06"/><rect class="cls-12" x="280.24" width="1.28" height="443.06"/><rect class="cls-12" x="281.52" width="1.28" height="443.06"/><rect class="cls-13" x="282.79" width="1.28" height="443.06"/><rect class="cls-13" x="284.07" width="1.28" height="443.06"/><rect class="cls-13" x="285.34" width="1.28" height="443.06"/><rect class="cls-14" x="286.62" width="1.28" height="443.06"/><rect class="cls-15" x="287.9" width="1.28" height="443.06"/><rect class="cls-15" x="289.17" width="1.28" height="443.06"/><rect class="cls-16" x="290.45" width="1.28" height="443.06"/><rect class="cls-17" x="291.72" width="1.28" height="443.06"/><rect class="cls-18" x="293" width="1.28" height="443.06"/><rect class="cls-19" x="294.28" width="1.28" height="443.06"/><rect class="cls-20" x="295.55" width="1.28" height="443.06"/><rect class="cls-20" x="296.83" width="1.28" height="443.06"/><rect class="cls-21" x="298.1" width="1.28" height="443.06"/><rect class="cls-21" x="299.38" width="1.28" height="443.06"/><rect class="cls-22" x="300.66" width="1.28" height="443.06"/><rect class="cls-23" x="301.93" width="1.28" height="443.06"/><rect class="cls-24" x="303.21" width="1.28" height="443.06"/><rect class="cls-25" x="304.48" width="1.28" height="443.06"/><rect class="cls-26" x="305.76" width="1.28" height="443.06"/><rect class="cls-27" x="307.03" width="1.28" height="443.06"/><rect class="cls-28" x="308.31" width="1.28" height="443.06"/><rect class="cls-29" x="309.59" width="1.28" height="443.06"/><rect class="cls-30" x="310.86" width="1.28" height="443.06"/><rect class="cls-31" x="312.14" width="1.28" height="443.06"/><rect class="cls-32" x="313.41" width="1.28" height="443.06"/><rect class="cls-33" x="314.69" width="1.28" height="443.06"/><rect class="cls-34" x="315.97" width="1.28" height="443.06"/><rect class="cls-35" x="317.24" width="1.28" height="443.06"/><rect class="cls-36" x="318.52" width="1.28" height="443.06"/><rect class="cls-37" x="319.79" width="1.28" height="443.06"/><rect class="cls-38" x="321.07" width="1.28" height="443.06"/><rect class="cls-39" x="322.35" width="1.28" height="443.06"/><rect class="cls-40" x="323.62" width="1.28" height="443.06"/><rect class="cls-41" x="324.9" width="1.28" height="443.06"/><rect class="cls-42" x="326.17" width="1.28" height="443.06"/><rect class="cls-43" x="327.45" width="1.28" height="443.06"/><rect class="cls-44" x="328.73" width="1.28" height="443.06"/><rect class="cls-45" x="330" width="1.28" height="443.06"/><rect class="cls-46" x="331.28" width="1.28" height="443.06"/><rect class="cls-47" x="332.55" width="1.28" height="443.06"/><rect class="cls-48" x="333.83" width="1.28" height="443.06"/><rect class="cls-49" x="335.11" width="1.28" height="443.06"/><rect class="cls-50" x="336.38" width="1.28" height="443.06"/><rect class="cls-51" x="337.66" width="1.28" height="443.06"/><rect class="cls-52" x="338.93" width="1.28" height="443.06"/><rect class="cls-53" x="340.21" width="1.28" height="443.06"/><rect class="cls-54" x="341.49" width="1.28" height="443.06"/><rect class="cls-55" x="342.76" width="1.28" height="443.06"/><rect class="cls-56" x="344.04" width="1.28" height="443.06"/><rect class="cls-57" x="345.31" width="1.28" height="443.06"/><rect class="cls-58" x="346.59" width="1.28" height="443.06"/><rect class="cls-59" x="347.86" width="1.28" height="443.06"/><rect class="cls-60" x="349.14" width="1.28" height="443.06"/><rect class="cls-61" x="350.42" width="1.28" height="443.06"/><rect class="cls-62" x="351.69" width="1.28" height="443.06"/><rect class="cls-63" x="352.97" width="1.28" height="443.06"/><rect class="cls-64" x="354.24" width="1.28" height="443.06"/><rect class="cls-65" x="355.52" width="1.28" height="443.06"/><rect class="cls-66" x="356.8" width="1.28" height="443.06"/><rect class="cls-67" x="358.07" width="1.28" height="443.06"/><rect class="cls-68" x="359.35" width="1.28" height="443.06"/><rect class="cls-69" x="360.62" width="1.28" height="443.06"/><rect class="cls-70" x="361.9" width="1.28" height="443.06"/><rect class="cls-71" x="363.18" width="1.28" height="443.06"/><rect class="cls-72" x="364.45" width="1.28" height="443.06"/><rect class="cls-73" x="365.73" width="1.28" height="443.06"/><rect class="cls-74" x="367" width="1.28" height="443.06"/><rect class="cls-74" x="368.28" width="1.03" height="443.06"/><rect class="cls-74" x="369.31" width="1.03" height="443.06"/><rect class="cls-75" x="370.34" width="1.03" height="443.06"/><rect class="cls-76" x="371.38" width="1.03" height="443.06"/><rect class="cls-76" x="372.41" width="1.03" height="443.06"/><rect class="cls-77" x="373.44" width="1.03" height="443.06"/><rect class="cls-78" x="374.47" width="1.03" height="443.06"/><rect class="cls-79" x="375.5" width="1.03" height="443.06"/><rect class="cls-80" x="376.54" width="1.03" height="443.06"/><rect class="cls-80" x="377.57" width="1.03" height="443.06"/><rect class="cls-81" x="378.6" width="1.03" height="443.06"/><rect class="cls-82" x="379.63" width="1.03" height="443.06"/><rect class="cls-82" x="380.66" width="1.03" height="443.06"/><rect class="cls-83" x="381.7" width="1.03" height="443.06"/><rect class="cls-84" x="382.73" width="1.03" height="443.06"/><rect class="cls-85" x="383.76" width="1.03" height="443.06"/><rect class="cls-86" x="384.79" width="1.03" height="443.06"/><rect class="cls-86" x="385.82" width="1.03" height="443.06"/><rect class="cls-87" x="386.86" width="1.03" height="443.06"/><rect class="cls-88" x="387.89" width="1.03" height="443.06"/><rect class="cls-88" x="388.92" width="1.03" height="443.06"/><rect class="cls-89" x="389.95" width="1.03" height="443.06"/><rect class="cls-90" x="390.99" width="1.03" height="443.06"/><rect class="cls-91" x="392.02" width="1.03" height="443.06"/><rect class="cls-92" x="393.05" width="1.03" height="443.06"/><rect class="cls-92" x="394.08" width="1.03" height="443.06"/><rect class="cls-93" x="395.11" width="1.03" height="443.06"/><rect class="cls-94" x="396.15" width="1.03" height="443.06"/><rect class="cls-94" x="397.18" width="1.03" height="443.06"/><rect class="cls-95" x="398.21" width="1.03" height="443.06"/><rect class="cls-95" x="399.24" width="1.03" height="443.06"/><rect class="cls-96" x="400.27" width="1.03" height="443.06"/><rect class="cls-97" x="401.31" width="1.03" height="443.06"/><rect class="cls-97" x="402.34" width="1.03" height="443.06"/><rect class="cls-98" x="403.37" width="1.03" height="443.06"/><rect class="cls-98" x="404.4" width="1.03" height="443.06"/><rect class="cls-99" x="405.43" width="1.03" height="443.06"/><rect class="cls-100" x="406.47" width="1.03" height="443.06"/><rect class="cls-101" x="407.5" width="1.03" height="443.06"/><rect class="cls-102" x="408.53" width="1.03" height="443.06"/><rect class="cls-103" x="409.56" width="1.03" height="443.06"/><rect class="cls-104" x="410.59" width="1.03" height="443.06"/><rect class="cls-105" x="411.63" width="1.03" height="443.06"/><rect class="cls-105" x="412.66" width="1.03" height="443.06"/><rect class="cls-106" x="413.69" width="1.03" height="443.06"/><rect class="cls-107" x="414.72" width="1.03" height="443.06"/><rect class="cls-108" x="415.76" width="1.03" height="443.06"/><rect class="cls-109" x="416.79" width="1.03" height="443.06"/><rect class="cls-109" x="417.82" width="1.03" height="443.06"/><rect class="cls-110" x="418.85" width="1.03" height="443.06"/><rect class="cls-111" x="419.88" width="1.03" height="443.06"/><rect class="cls-112" x="420.92" width="1.03" height="443.06"/><rect class="cls-113" x="421.95" width="1.03" height="443.06"/><rect class="cls-114" x="422.98" width="1.03" height="443.06"/><rect class="cls-115" x="424.01" width="1.03" height="443.06"/><rect class="cls-115" x="425.04" width="1.03" height="443.06"/><rect class="cls-116" x="426.08" width="1.03" height="443.06"/><rect class="cls-117" x="427.11" width="1.03" height="443.06"/><rect class="cls-118" x="428.14" width="1.03" height="443.06"/><rect class="cls-119" x="429.17" width="1.03" height="443.06"/><rect class="cls-119" x="430.2" width="1.03" height="443.06"/><rect class="cls-120" x="431.24" width="1.03" height="443.06"/><rect class="cls-120" x="432.27" width="1.03" height="443.06"/><rect class="cls-121" x="433.3" width="1.03" height="443.06"/><rect class="cls-122" x="434.33" width="1.03" height="443.06"/><rect class="cls-123" x="435.36" width="1.03" height="443.06"/><rect class="cls-124" x="436.4" width="1.03" height="443.06"/><rect class="cls-124" x="437.43" width="1.03" height="443.06"/><rect class="cls-125" x="438.46" width="1.03" height="443.06"/><rect class="cls-126" x="439.49" width="1.03" height="443.06"/><rect class="cls-127" x="440.52" width="1.03" height="443.06"/><rect class="cls-128" x="441.56" width="1.03" height="443.06"/><rect class="cls-129" x="442.59" width="1.03" height="443.06"/><rect class="cls-130" x="443.62" width="1.03" height="443.06"/><rect class="cls-130" x="444.65" width="1.03" height="443.06"/><rect class="cls-131" x="445.69" width="1.03" height="443.06"/><rect class="cls-132" x="446.72" width="1.03" height="443.06"/><rect class="cls-133" x="447.75" width="1.03" height="443.06"/><rect class="cls-134" x="448.78" width="1.03" height="443.06"/><rect class="cls-135" x="449.81" width="1.03" height="443.06"/><rect class="cls-136" x="450.85" width="1.03" height="443.06"/><rect class="cls-137" x="451.88" width="1.03" height="443.06"/><rect class="cls-137" x="452.91" width="1.03" height="443.06"/><rect class="cls-138" x="453.94" width="1.03" height="443.06"/><rect class="cls-139" x="454.97" width="1.03" height="443.06"/><rect class="cls-140" x="456.01" width="1.03" height="443.06"/><rect class="cls-141" x="457.04" width="1.03" height="443.06"/><rect class="cls-141" x="458.07" width="1.03" height="443.06"/><rect class="cls-142" x="459.1" width="1.03" height="443.06"/><rect class="cls-142" x="460.13" width="1.03" height="443.06"/><rect class="cls-143" x="461.17" width="1.03" height="443.06"/><rect class="cls-143" x="462.2" width="1.03" height="443.06"/><rect class="cls-144" x="463.23" width="1.03" height="443.06"/><rect class="cls-145" x="464.26" width="1.03" height="443.06"/><rect class="cls-145" x="465.29" width="320.56" height="443.06"/></g></g></g></svg>