<?xml version="1.0" encoding="UTF-8"?><svg id="Layer_2" xmlns="http://www.w3.org/2000/svg" viewBox="0 0 786.8 443.93"><defs><style>.cls-1{fill:#fff;}.cls-2{fill:none;stroke:#fff;stroke-miterlimit:10;}</style></defs><g id="Layer_1-2"><g><path class="cls-1" d="M300.45,128.44c-7.68,0-13.92,6.97-13.92,15.57s6.23,15.57,13.92,15.57,13.92-6.97,13.92-15.57-6.23-15.57-13.92-15.57Zm0,22.12c-3.24,0-5.86-2.93-5.86-6.55s2.62-6.55,5.86-6.55,5.86,2.93,5.86,6.55-2.62,6.55-5.86,6.55Z"/><path class="cls-1" d="M291.41,86.2c-1.46,.44-2.88,.92-4.26,1.46-3.89,1.53-8.17,1.55-12.06,.11-9.93-3.67-21.01-4.27-31.94-1.01-6.91,2.08-13.13,5.47-18.49,9.89-12.4,10.21-25.24,34.47-19.14,60.52,4.5,19.2,18.1,33.9,35.02,38.34-1.29,2.8-2.76,6.75-3.58,11.73-.43,2.61-.6,4.99-.63,7.05-.39-.04-.78-.12-1.19-.27-21.52-7.66-39.13-26.24-45.55-51.34-6.91-26.96,.86-54.59,18.09-73.29,8.48-9.2,19.28-16.23,31.75-19.95,18.6-5.56,37.49-2.71,53.11,6.42,4.13,2.42,3.46,8.98-1.13,10.34Z"/><path class="cls-1" d="M270.81,298.13c-6.69-1.75-13.03-5.04-13.03-5.04-11.97-6.09-22.47-15.83-29.91-28.79-6.32-11.05-10.18-23.14-10.28-35.24-.23-26.86,10.91-53.67,33.9-68.69,4.53-2.96,9.25-5.29,14.08-7.05,8.97-3.27,17.59,5.47,15.32,15.28l-.05,.2c-6.67,1.14-13.22,3.66-19.33,7.64-13.26,8.61-21.77,22.4-24.6,37.45-.49,2.58-.82,5.2-.96,7.83-.4,6.92,.38,13.98,2.42,20.79,1.27,4.26,3.03,8.41,5.32,12.39,6.04,10.54,14.78,18.24,24.67,22.74,0,0,0,0,0,0,0,0,0,0,0,0,0,0,0,0,0,0,2.56,1.04,9.72,3.31,9.72,3.31,6.5,2.63,434.75,9.76,435.43,16.04,.66,6.16-409.57,9.83-442.71,1.14Z"/><path class="cls-1" d="M292.56,281.99c-.28,3.99-.85,7.94-1.71,11.85-2.59,11.77-7.9,23.05-15.96,32.74-9.45,11.37-21.4,18.97-34.19,22.72-22.38,6.58-47.33,1.34-65.99-16.31-3.58-3.38-6.76-7.05-9.55-10.97-5.4-7.59-.9-18.53,8.03-19.27l.06,.04c2.94,6.04,6.96,11.63,12.01,16.4,10.72,10.13,24.2,14.85,37.45,14.34,14.15-.54,28.06-7.02,38.19-19.18,8.35-10.04,12.79-22.35,13.4-34.75,.08-1.46,.1-2.91,.07-4.33-.11-5.47-.96-10.91-2.52-16.17-2.83-9.45-8.02-18.26-15.49-25.31-3.65-3.43-7.6-6.25-11.75-8.44v-20.52c8.71,3.13,16.96,8.15,24.27,15.02,12.58,11.89,20.26,27.47,22.86,43.85,.97,6.04,1.24,12.19,.82,18.3Z"/><g><path class="cls-1" d="M388.76,189.45l5.31,8.16,3.06,4.5c5.93,8.91,8.89,18.34,8.89,28.28s-3.93,18.13-9.16,25.4c-7.16,9.99-16.53,14.98-28.12,14.98-8.97,0-16.32-3.37-22.05-10.1-5.74-6.73-8.6-15.35-8.6-25.86,0-12.85,4.46-23.57,13.39-32.15,4.73-4.55,9.1-6.82,13.11-6.82,2.08,0,3.77,.73,5.08,2.18,1.31,1.45,1.96,3.33,1.96,5.63,0,3.1-1.5,5.77-4.5,8.02l-4.62,3.45c-2.66,2.02-4.87,4.83-6.64,8.44-1.77,3.61-2.66,7.18-2.66,10.69,0,5.58,1.55,10.19,4.65,13.83,3.1,3.63,7.03,5.45,11.81,5.45,5.27,0,9.85-2.4,13.74-7.21,3.89-4.81,7.14-10.47,7.14-16.99,0-4.13-.79-7.88-2.37-11.26-1.58-3.38-6.3-8.61-11.53-15.69-3.66-4.92-6.27-9.24-7.85-12.95h-15.59c-5.31,0-7.97-2.23-7.97-6.68,0-3.24,.93-5.73,2.8-7.49,1.87-1.76,4.49-2.64,7.88-2.64h9.87c.77-9.29,4.25-16.97,10.45-23.04,6.2-6.07,14.94-9.11,23.6-9.11,6.5,0,11.81,2.18,15.91,6.54,4.1,4.36,6.15,10.02,6.15,16.96,0,9.24-3.25,16.32-9.76,21.25-3.69,2.81-9.56,4.22-17.61,4.22h-5.77Zm-8.24-16.81h15.17c7.81,0,11.72-2.77,11.72-8.3,0-2.16-.8-3.89-2.4-5.21-1.6-1.31-3.72-1.97-6.38-1.97-4.16,0-7.94,1.57-11.34,4.71-3.41,3.14-6.54,6.73-6.77,10.76Z"/><path class="cls-1" d="M460.17,215.77l8.95,17.1c1.12,2.11,1.67,3.85,1.67,5.21,0,2.16-.74,4.11-2.22,5.84-1.48,1.73-3.15,2.6-4.99,2.6-1.62,0-3.02-1.05-4.21-3.17l-.69-1.27-13.39-24.41-6.47,19.49c-2.08,6.24-5.12,9.36-9.12,9.36-1.66,0-3.05-.62-4.19-1.86-1.14-1.24-1.7-2.76-1.7-4.54,0-1.36,.31-2.93,.92-4.71l.64-1.9,24.71-74.23,.63-1.9c1.77-5.25,4.6-7.88,8.49-7.88,1.62,0,3,.66,4.16,1.97,1.15,1.31,1.73,2.88,1.73,4.71,0,1.41-.31,3.03-.92,4.85l-.63,1.9-14.72,44.18,12.99-11.75c2.69-2.44,5-3.66,6.93-3.66,1.62,0,2.96,.63,4.04,1.9,1.08,1.27,1.62,2.84,1.62,4.71,0,3.14-1.42,6-4.27,8.58l-1.33,1.2-8.6,7.67Z"/><path class="cls-1" d="M529.73,227.67h6.67c4.87,0,7.31,2.08,7.31,6.24,0,2.85-.85,5.07-2.56,6.66-1.71,1.59-5.4,2.38-8.47,2.38h-9.32c-1.11,4.02-3.13,9.35-6.04,15.99-5.06,11.69-12.43,17.53-22.1,17.53-5.87,0-10.8-2.24-14.79-6.73-3.99-4.49-5.98-10.05-5.98-16.69,0-4.63,2.39-8.94,4.56-12.94,2.17-4,5.02-7,8.54-9.01,4.07-2.29,10.07-3.44,18.01-3.44h9.38l1.67-5.05c-2.84,1.45-5.45,2.17-7.83,2.17-4.11,0-7.43-1.27-9.98-3.82-2.55-2.55-3.83-5.86-3.83-9.92,0-2.48,.82-6.19,2.47-11.15l6.27-18.86,.63-1.96c1.84-5.28,4.7-7.92,8.57-7.92,1.69,0,3.1,.66,4.23,1.96,1.13,1.31,1.7,2.97,1.7,4.98,0,1.36-.5,3.55-1.5,6.59l-5.64,16.76c-.88,2.71-1.34,4.46-1.38,5.26-.12,2.29,1.07,3.44,3.57,3.44,1.76,0,3.57-.63,5.41-1.89,1.84-1.26,3.01-2.69,3.51-4.28l7.71-22.93,.58-1.96c1.8-5.28,4.66-7.92,8.57-7.92,1.69,0,3.1,.67,4.23,2s1.7,2.98,1.7,4.94c0,1.36-.29,2.92-.86,4.7l-.69,1.89-14.33,42.98Zm-20.12,15.29h-8.08c-8.85,0-13.28,3.38-13.28,10.13,0,2.39,.61,4.31,1.82,5.77,1.21,1.45,2.84,2.18,4.88,2.18,2.81,0,5.3-1.34,7.48-4.01,2.17-2.67,4.57-7.36,7.19-14.07Z"/><path class="cls-1" d="M584.38,174.17h-7.12c-4.27,0-6.41-2.25-6.41-6.75,0-2.86,.88-5.25,2.63-7.18,1.75-1.92,3.9-2.88,6.44-2.88h18.47c11.32,0,20,3.28,26.04,9.85,6.04,6.57,9.06,16.02,9.06,28.35,0,18.81-6.45,36.05-16.72,51.71-5.81,8.82-12.38,15.24-19.72,19.28-14.74,8.11-28.4,5.67-45.45,2.61m20.65-13.97h2.31c11.93,0,23.23-6.45,31.27-19.35,3.89-6.19,6.96-12.9,9.21-20.12,2.25-7.22,3.38-13.91,3.38-20.05,0-6.85-1.58-12.24-4.73-16.18-3.15-3.94-7.45-5.91-12.87-5.91l-28.56,81.61Z"/><path class="cls-1" d="M659.85,233.78h6.5c4.83,0,7.25,2.08,7.25,6.24,0,2.85-2.16,5.07-3.87,6.66-1.71,1.59-4.09,2.38-7.16,2.38h-9.15c-3.37,0-6.03-.84-7.97-2.52-1.94-1.68-1.6-3.97-1.6-6.87,0-1.54,.4-3.51,1.21-5.89l9.49-28.47,.63-1.96c1.84-5.5,4.84-8.14,9.01-7.91,1,.06,1.99,.43,2.81,1.11,1.75,1.46,2.62,3.3,2.62,5.53,0,1.5-.52,3.79-1.55,6.87l-8.23,24.82Zm7.62-61.46c2.23,0,4.13,.95,5.69,2.85,1.56,1.9,2.34,4.21,2.34,6.93s-.78,5.03-2.34,6.93c-1.56,1.9-3.45,2.85-5.69,2.85s-4.13-.95-5.69-2.85c-1.56-1.9-2.34-4.21-2.34-6.93s.78-5.03,2.34-6.93c1.56-1.9,3.45-2.85,5.69-2.85Z"/></g><ellipse class="cls-2" cx="394.1" cy="222.46" rx="392" ry="220"/><path class="cls-2" d="M786.3,222.46c.22,41.48-21.56,79.83-50.59,108.24-59.14,57.3-140.01,86.25-219.56,101.59-137.28,24.41-295.32,10.93-416.16-62.78C48.73,337.56,.5,286.33,.5,222.46c-.15-63.93,47.99-115.35,99.21-147.48C220.7,.71,378.65-12.85,516.31,11.69c79.64,15.5,160.55,44.77,219.61,102.31,28.98,28.51,50.72,66.96,50.38,108.46h0Zm-.4,0c-2.12-105.81-121.18-168.2-210.67-193.71C441.38-8.8,284.42-4.24,155.73,49.96c-55,24.09-109.76,59.38-137.82,114.21-41.19,83.14,12.88,159.24,83.55,203.01,133.95,82.54,324.83,92.15,474,49.76,89.53-25.77,208.56-88.61,210.44-194.48h0Z"/></g></g></svg>