<?xml version="1.0" encoding="UTF-8"?><svg id="Layer_2" xmlns="http://www.w3.org/2000/svg" xmlns:xlink="http://www.w3.org/1999/xlink" viewBox="0 0 17 17"><defs><style>.cls-1{fill:#fff;}.cls-2{stroke:#f89939;stroke-miterlimit:10;stroke-width:.1px;}.cls-2,.cls-3{fill:none;}.cls-4{clip-path:url(#clippath);}</style><clipPath id="clippath"><rect class="cls-3" width="17" height="17"/></clipPath></defs><g id="Layer_1-2"><g><circle cx="8.5" cy="8.5" r="8.5"/><g class="cls-4"><path class="cls-1" d="M10.43,3.96c-.07,.02-.14,.03-.2,.05-.18,.05-.39,.05-.57,0-.47-.13-1-.15-1.52-.04-.33,.07-.62,.19-.88,.35-.59,.36-1.2,1.22-.91,2.15,.21,.68,.86,1.2,1.66,1.36-.06,.1-.13,.24-.17,.42-.02,.09-.03,.18-.03,.25-.02,0-.04,0-.06,0-1.02-.27-1.86-.93-2.16-1.82-.33-.96,.04-1.93,.86-2.6,.4-.33,.92-.58,1.51-.71,.88-.2,1.78-.1,2.52,.23,.2,.09,.16,.32-.05,.37"/><path class="cls-1" d="M10.27,11.34c-.32-.06-.62-.18-.62-.18-.57-.22-1.07-.56-1.42-1.02-.3-.39-.48-.82-.49-1.25-.01-.95,.52-1.9,1.61-2.43,.22-.1,.44-.19,.67-.25,.43-.12,.84,.19,.73,.54h0c-.32,.05-.63,.14-.92,.28-.63,.31-1.03,.79-1.17,1.33-.02,.09-.04,.18-.05,.28-.02,.25,.02,.5,.11,.74,.06,.15,.14,.3,.25,.44,.29,.37,.7,.65,1.17,.81h0s0,0,0,0h0c.12,.04,.46,.12,.46,.12,.31,.09,3.93,.16,3.96,.38,.03,.22-2.73,.53-4.3,.22"/><path class="cls-1" d="M11.3,10.77c-.01,.14-.04,.28-.08,.42-.12,.42-.38,.82-.76,1.16-.45,.4-1.02,.67-1.62,.81-1.06,.23-2.25,.05-3.13-.58-.17-.12-.32-.25-.45-.39-.26-.27-.04-.66,.38-.68,0,0,0,0,0,0,.14,.21,.33,.41,.57,.58,.51,.36,1.15,.53,1.78,.51,.67-.02,1.33-.25,1.81-.68,.4-.36,.61-.79,.64-1.23,0-.05,0-.1,0-.15,0-.19-.05-.39-.12-.57-.13-.34-.38-.65-.74-.9-.17-.12-.36-.22-.56-.3v-.73c.41,.11,.81,.29,1.15,.53,.6,.42,.96,.97,1.09,1.55,.05,.21,.06,.43,.04,.65"/><path class="cls-1" d="M11.68,5.32c-.36,0-.66,.25-.66,.55s.3,.55,.66,.55,.66-.25,.66-.55-.3-.55-.66-.55m0,.78c-.15,0-.28-.1-.28-.23s.12-.23,.28-.23,.28,.1,.28,.23-.12,.23-.28,.23"/><circle class="cls-2" cx="8.5" cy="8.5" r="8.45"/></g></g></g></svg>